<svg xmlns="http://www.w3.org/2000/svg" viewBox="0 0 512 512"><title>Artboard 129</title><g id="Tractor"><path d="M352,64a10.66666,10.66666,0,1,0,0,21.33333h10.66667A21.33334,21.33334,0,0,1,384,106.66667V128h21.33333V106.66667A42.66666,42.66666,0,0,0,362.66667,64Z" style="fill:#99cefa"/><rect x="384" y="106.66667" width="21.33333" height="42.66667" rx="10.66666" ry="10.66666" style="fill:#64aef7"/><rect x="362.66667" y="128" width="64" height="234.66667" rx="21.33333" ry="21.33333" transform="translate(789.33333 490.66667) rotate(-180)" style="fill:#c9e5fc"/><path d="M362.66667,341.33333V170.66667a21.33333,21.33333,0,1,1,42.66666,0V341.33333a21.33333,21.33333,0,1,1-42.66666,0Z" style="fill:#99cefa"/><rect x="362.66667" y="256" width="64" height="64" rx="31.99997" ry="31.99997" style="fill:#99cefa"/><circle cx="373.33333" cy="202.66667" r="10.66667" style="fill:#64aef7"/><circle cx="373.33333" cy="160" r="10.66667" style="fill:#64aef7"/><circle cx="416" cy="160" r="10.66667" style="fill:#99cefa"/><circle cx="394.66667" cy="181.33333" r="10.66667" style="fill:#64aef7"/><circle cx="416" cy="202.66667" r="10.66667" style="fill:#99cefa"/><circle cx="416" cy="245.33333" r="10.66667" style="fill:#99cefa"/><circle cx="394.66667" cy="224" r="10.66667" style="fill:#64aef7"/><circle cx="384" cy="426.66667" r="64" style="fill:#3d180b"/><circle cx="202.66667" cy="394.66667" r="96" style="fill:#3d180b"/><path d="M128,64H320l21.33333,170.66667L429.89166,251.46A42.66666,42.66666,0,0,1,464.26813,298.763l-11.52606,90.62042a42.66667,42.66667,0,0,1-42.32568,37.28324H42.66667V256a42.66666,42.66666,0,0,1,42.66666-42.66667h21.33334Z" style="fill:#216600"/><rect x="256" y="64" width="64" height="42.66667" rx="21.33331" ry="21.33331" style="fill:#215200"/><polygon points="324.741 106.667 149.333 106.667 149.333 234.667 341.333 234.667 324.741 106.667" style="fill:#0a86e3"/><path d="M324.74089,106.66667h-64a10.66666,10.66666,0,1,0,0,21.33333h45.2539l12.59766,97.18571a10.66863,10.66863,0,0,0,10.56445,9.29655,10.78252,10.78252,0,0,0,1.38477-.08968,10.66748,10.66748,0,0,0,9.21289-11.90755L330.901,154.189l-.00325-.02783-.01368-.103-.00911-.07211-.00716-.05485-.01107-.08366-.03255-.25016c-.00326-.02474-.00651-.04964-.00912-.07438l-.0026-.016c-1.29753-10.01009-2.485-19.17188-3.35156-25.85693h0l-2.72005-20.9834Z" style="fill:#006ce2"/><path d="M128,64H234.66667L256,234.66667l87.59662,14.59943a42.66666,42.66666,0,0,1,35.32283,47.37829l-11.581,92.64776a42.66667,42.66667,0,0,1-42.33719,37.37452H42.66667V256a42.66666,42.66666,0,0,1,42.66666-42.66667h21.33334Z" style="fill:#6ec030"/><path d="M42.66667,277.33333h128A42.66667,42.66667,0,0,1,213.33333,320V426.66667a0,0,0,0,1,0,0H42.66667a0,0,0,0,1,0,0V277.33333A0,0,0,0,1,42.66667,277.33333Z" style="fill:#378900"/><rect x="128" y="64" width="85.33333" height="42.66667" rx="21.33331" ry="21.33331" style="fill:#4da900"/><path d="M106.66667,277.33333h64A42.66667,42.66667,0,0,1,213.33333,320V426.66667a0,0,0,0,1,0,0H64a0,0,0,0,1,0,0V320A42.66667,42.66667,0,0,1,106.66667,277.33333Z" style="fill:#3d180b"/><path d="M277.33333,341.33333h21.33333A42.66667,42.66667,0,0,1,341.33333,384v42.66667a0,0,0,0,1,0,0H234.66667a0,0,0,0,1,0,0V384A42.66667,42.66667,0,0,1,277.33333,341.33333Z" style="fill:#3d180b"/><circle cx="117.33333" cy="394.66667" r="96" style="fill:#5b2c06"/><path d="M117.33333,298.66667h-.084l-.06966.00016H117.168l-.06511.00016h-.01237l-.06315.00016h-.01823l-.05989.00033h-.013l-.0638.00033h-.01368l-.0638.00032-.01237.00016-.0625.00033h-.01693l-.0625.00049-.01171.00016-.06511.00049h-.01172l-.06836.00065h-.00651l-.071.00065h-.00586q-.19434.002-.388.00456a10.58883,10.58883,0,0,0-10.39258,10.72786A10.74428,10.74428,0,0,0,116.349,320.0057l.0651-.00017L117.33333,320a10.7415,10.7415,0,0,0,1.94532-.18864,10.74608,10.74608,0,0,0,1.93164.287l.91406.05224c.14453.0083.28776.01351.431.01595.15885.01921.31966.03483.48112.047a74.47608,74.47608,0,0,1,16.25781,3.06234,10.66658,10.66658,0,1,0,6.26367-20.3929q-2.7832-.855-5.63672-1.54395l-.0013-.00033-.07487-.0179-.00911-.00212-.07422-.0179-.00261-.00065c-.13281-.03174-.26627-.06331-.39908-.09456l-.00912-.00228-.06836-.01595-.01562-.00358-.0599-.014-.02213-.005-.0599-.014-.01628-.00375-.0677-.01579-.00847-.00195-.07617-.01758-.0026-.00048q-.12012-.02784-.24024-.055l-.00846-.00179-.06771-.01546-.02018-.00456-.05664-.01286-.0267-.006-.05208-.01172-.02344-.0052-.056-.01254-.02408-.00537-.05469-.01237-.02279-.005-.05078-.0114-.03-.00651-.06575-.01448-.00847-.00212-.07812-.01709-.02344-.00521-.05469-.01188-.03255-.00716-.04232-.00928-.0358-.00781-.04493-.00977-.0319-.007-.043-.00928-.0358-.00781-.043-.00928-.03451-.00733-.04231-.00911-.03516-.00765-.04492-.0096-.03255-.007-.04818-.01026-.02865-.00618-.07552-.01595-.02864-.00619-.04948-.01041-.03451-.00716-.041-.00879-.03776-.00782-.041-.00862-.03646-.00765-.04167-.00863-.03385-.00716-.04492-.00928-.03451-.00716-.04427-.00911-.0319-.00651-.04883-.01009-.02929-.00619-.15365-.03125-.0293-.006-.04948-.01009-.0332-.00668-.04232-.00862-.0358-.00716-.04493-.00912-.03255-.00651-.04362-.00879-.03515-.007-.04427-.00879-.03386-.00683-.04492-.00895-.03125-.00619-.05273-.01041-.0254-.005-.05729-.01123-.02148-.00423-.07682-.01514-.01758-.00342-.06185-.012-.02474-.00472-.05208-.01026-.0306-.00585-.04818-.00944-.0306-.0057-.05013-.00977-.02539-.00488-.05469-.01042-.026-.005-.05273-.00993-.02539-.005-.05144-.0096-.02994-.0057-.06511-.01237-.01042-.002-.08072-.01514-.00391-.00081-.07682-.01432-.00977-.00179-.06706-.01253-.02083-.00375-.0599-.01107-.02083-.0039-.05729-.01058-.02279-.00423-.05989-.01091-.01823-.00342-.0638-.01155-.015-.00293-.07422-.01335-.00455-.00081q-.1631-.02955-.32618-.0586l-.0039-.00065-.07487-.01318-.01237-.00228-.06836-.01188-.01172-.00228-.06966-.01221-.01172-.00195-.07617-.01318-.002-.00049q-4.56346-.794-9.26627-1.15088-.27441-.02074-.54623-.02734-.23925-.0276-.48242-.0446l-.13216-.00846-.00846-.00049-.20248-.0127c-.17252-.01041-.33658-.02-.50846-.02962q-.23145-.01269-.46159-.02441l-.02148-.00131-.10873-.00537q-.24414-.011-.48632-.0109a10.62026,10.62026,0,0,0-1.87045.1652,10.651,10.651,0,0,0-2.32877-.2736l-.14584-.00016Zm-37.63346,8.71647a10.62137,10.62137,0,0,0-4.668,1.08187q-2.85645,1.404-5.60417,2.99023l-.00781.00456-.05534.03206-.01041.00586-.05339.03076-.01172.007c-.07617.04378-.15429.08936-.22982.13347l-.01562.00927-.04232.02458-.02539.01465-.03841.0223-.0319.019-.03386.01969-.0332.01937-.03385.02-.03841.02262-.02865.01661-.06575.03873-.00847.00489-.06055.0358-.01562.00928-.05273.03125-.02149.0127-.04883.02864-.01692.01042-.05339.03157-.01628.00977q-.14062.08325-.27994.16667l-.00131.001c-.02343.01384-.04622.02735-.069.04134l-.00455.00261-.06055.03646-.01432.00862-.0625.0376-.00391.00228q-3.89258,2.344-7.53776,5.03809l-.00456.00341-.05729.04232-.015.01123-.04492.033-.02474.01839-.03972.02979-.02148.01562-.04167.03109-.02409.01774-.05989.04476-.02409.01807-.03646.027-.03255.02457-.02995.02246-.03711.02751-.02083.01546-.04232.0319-.01693.0127-.04752.03564-.00261.00228q-1.36914,1.0288-2.69661,2.102-.19726.16041-.38477.328-.19237.14356-.38021.297c-.03515.02865-.06966.05746-.10416.0861l-.00586.0044q-.39161.32447-.77995.653l-.02083.01742c-.02084.01774-.04167.03564-.06315.05338-.05013.04281-.10027.08561-.151.12842a10.58832,10.58832,0,0,0-1.15625,14.88672,10.74413,10.74413,0,0,0,15.07618,1.28011l.70052-.58724q.166-.13892.32421-.28288.19434-.14281.38347-.29573a74.87263,74.87263,0,0,1,13.95638-8.918,10.66837,10.66837,0,0,0-4.7181-20.23942ZM39.50846,348.953a10.66874,10.66874,0,0,0-9.72981,6.28353,95.27648,95.27648,0,0,0-4.87435,13.39876l-.00065.0031c-.00717.02636-.01433.05208-.02214.07861v.00081q-.05566.19874-.11068.39812l-.0039.014c-.00586.02181-.01172.04379-.01823.0656l-.00326.01253-.01823.06689-.00325.01286-.01953.071-.002.00586-.02083.07731-.00065.00212c-.01432.05387-.02865.1071-.04362.161l-.00065.0026-.01953.07357-.00586.021-.015.05517-.00651.02556-.01432.05306-.00651.02571-.01367.04965-.00781.03011-.01237.04752-.00782.02946c-.00586.01986-.01106.04-.01627.0599l-.00391.015-.041.15528-.00651.02473-.01368.0542-.00586.02246c-.0052.01856-.00976.03663-.01432.05518l-.00716.02686-.013.0498-.00716.02832-.013.04915-.00782.0293-.01432.05729-.00456.01677-.01692.06689-.00326.01286c-.00716.02588-.01367.05225-.02018.07813l-.00326.01334-.01627.06218-.00781.03076-.01172.04785-.00782.03027-.01171.04574-.00847.03483-.01107.04134-.00911.0363-.00977.041-.00911.03565-.01107.04313-.00846.035-.00977.0376c-.00781.033-.01692.07015-.02539.10319l-.002.0083-.01107.04346-.00781.03336-.01107.04476-.00781.03158-.01042.04166-.00911.03679-.00977.03922-.00976.03972-.00847.03548-.01041.0428-.00912.03614-.00976.04-.00847.03694-.00976.04053-.01563.0625-.01172.04883-.00781.03353-.00977.0415-.00976.04037-.00912.03808-.00911.0389-.00911.03678-.00977.04-.00846.0376-.01042.04232-.00651.02913-.01172.04786-.00586.02718c-.01367.05729-.02865.12158-.04232.179l-.0039.01709-.01237.05176-.00521.02474c-.00391.015-.00781.03271-.01107.04785l-.00781.03207-.00846.03694-.01042.04492-.00781.03369-.00977.04183-.00846.0376-.00782.03516-.01041.04443-.00782.036-.00911.03793-.015.06656-.01042.04607-.00911.04052-.00977.04167-.00716.03271-.00977.04265-.00846.0389-.00846.03711-.00847.03906-.00911.03939-.00847.03841c-.0026.01221-.00586.02816-.00911.04036l-.00781.03581-.00847.04036c-.00455.0184-.00846.03695-.01237.05534l-.00521.0236-.01627.07422-.00716.0306c-.00326.01595-.00651.03174-.01042.04769l-.00651.03109-.00977.04638-.00846.03728-.00846.04069-.00781.03466-.00977.04509-.00716.03385-.01107.04981-.00521.02588-.01172.05468-.00586.02637-.0332.15544-.00456.02132-.01237.06006-.00455.02165c-.00391.01806-.00782.03548-.01107.05354l-.00651.0306-.01107.05111-.00521.02734-.01107.05078-.00585.02784c-.00391.01985-.00782.03987-.01237.05973l-.00391.01807c-.01628.08105-.0332.16162-.04948.24267l-.0013.00635-.015.0721-.00325.01644-.01237.061-.00261.01448c-.03645.17871-.0677.35645-.0944.53483-.03776.153-.07161.30713-.10286.46322-.0918.48112-.181.9681-.26628,1.45182a10.587,10.587,0,0,0,8.60417,12.20443,10.72539,10.72539,0,0,0,12.42839-8.63037l.16471-.89681c.02539-.14112.04883-.28239.069-.42318.03841-.15544.07422-.31217.10612-.4707a74.13175,74.13175,0,0,1,5.06966-15.72787,10.67162,10.67162,0,0,0-9.7168-15.05485ZM35.028,406.59684a10.67584,10.67584,0,0,0-10.29752,13.47461q.11036.40186.224.8029l.00065.00293.01627.05615.00586.022.015.05258.00586.02034c.00521.01774.01041.03564.015.05339l.00651.02181.015.05289.00585.01921c.00456.01774.01042.03776.01563.0555l.0026.00944.05664.19564.00326.01155.01432.04883.00847.02865.01367.0472.00781.02669.01367.04671.00847.02963.01367.04573.00911.0319.01172.04069.01172.03955.01107.0376.02148.07227.00781.02653c.00521.01627.00977.03255.01433.04882l.00911.03077.015.0485.00781.02783.01432.047.00912.03157.01367.04476.00976.033.013.04427.00977.0306.01562.05192.00717.02474c.00781.02507.015.05046.02278.07569l.0013.00342.02214.07373.00521.01725c.00586.01969.01172.03922.01823.05892l.00716.02425.01628.0542.00651.02148.01757.057.00651.02034.01888.06234.00391.01318.02148.06885.00261.00928.07422.23828v.0013l.02344.07357.0039.01367.02084.06559.0039.01221.02149.07.002.00651c.04167.13184.08333.264.12565.39551l.002.00618.02149.06852.00521.01547.02148.0677.002.00652c.00847.0249.01628.05045.02474.07535l.00065.00293q.05079.15844.10287.31673l.0013.00424c.00781.0249.01563.049.02409.07389l.002.007.02279.06917.0039.01107.02344.07161.0013.00505c.03516.10531.06967.2098.10417.31494l.002.00553.02344.06967.00456.01383.02148.06527.00391.01123.02214.0651.00455.01416q.05176.15576.10482.3112l.002.00488c.00782.02393.01628.04851.02474.07243l.00261.00847.02278.06689.00456.01318.02344.06869.0026.00716c.00847.02425.01693.04883.02474.07308l.00195.00439q.05274.15454.10678.30909l.00586.01725.02083.06055.00521.01448.02213.0638.00456.01351c.00846.02263.01628.04525.02409.06787l.0026.00782.026.0734.00131.00407.05468.15576.002.00554c.00846.02311.01692.0472.02474.07014l.0052.014c.00651.0197.01433.0402.02084.0599l.00716.01937.02148.06054.00521.01416c.00716.02084.015.04248.02279.06348l.00456.01318.02539.07194.0013.00342c.01823.05127.03711.10352.056.15479l.00325.01009.02344.06461.00651.01872c.00716.01937.01432.03841.02083.05762l.00651.0179.02084.05664.00846.02263.01953.05534.00716.01822.02149.06006.00586.01628c.01823.0498.03711.10026.05534.15006l.00651.01856.02148.05762.00781.021.01888.05192.00977.02556.01823.05094.00976.0262.01693.04509.01107.02978.01823.049.00976.02555c.00717.02.01433.03971.02214.05957l.00456.01351.02734.07275.015.03923.01172.03222.01628.0433.01172.03125.01432.03727.01367.03646.015.04.01237.03222.01432.03907.013.03434.01563.04069.013.034.01367.03678.01107.02913c.01237.03142.02474.06348.03645.09489l.00651.01758.02019.05274.00651.01725.01953.05029.00911.02442.01823.047.00912.02344.01823.04769.00976.02555.01888.04818.00586.01546c.04167.10824.08333.21582.12565.3239l.00326.00813.02409.06136.00325.0083.02344.05958.00456.01188.02343.05908.00326.00814.02409.06119.00065.00261A95.55087,95.55087,0,0,0,32.638,439.90348c.08008.1473.16211.29183.2474.43376q.10449.21508.2194.42708c.02148.03972.04622.08415.06771.12386l.0026.00375c.02148.03987.04362.07959.06576.1193l.015.02734.04687.08513c.01042.01855.02214.03939.03191.05794l.02734.04915.043.07666.04427.07927.01888.03418q.13867.24829.27864.49544l.01107.0197c.01823.03141.03581.06315.054.09456a10.5841,10.5841,0,0,0,14.41667,3.94124,10.74577,10.74577,0,0,0,4.08007-14.57064l-.44466-.79638q-.10449-.188-.21614-.37012c-.06967-.14486-.14193-.28841-.21875-.43131a74.1709,74.1709,0,0,1-6.11914-15.3545A10.67134,10.67134,0,0,0,35.028,406.59684Zm33.30209,47.266a10.66721,10.66721,0,0,0-6.15755,19.38395,95.822,95.822,0,0,0,18.71614,10.26042c.15755.06413.31641.12451.47526.18067q.21192.09691.42839.18522c.46224.18408.92773.36539,1.39258.54264a10.58175,10.58175,0,0,0,13.60091-6.14648,10.74666,10.74666,0,0,0-6.127-13.83545l-.849-.3309q-.20118-.07812-.403-.14778c-.14453-.06738-.29232-.13184-.44141-.1932a74.59211,74.59211,0,0,1-14.51041-7.95768,10.61413,10.61413,0,0,0-6.125-1.94141Zm76.27278,11.02311a10.69018,10.69018,0,0,0-3.362.54379l-.86459.28613c-.13607.04525-.27148.09294-.40495.1429q-.23144.06079-.46224.13249a74.46248,74.46248,0,0,1-16.248,3.11133,10.6669,10.6669,0,0,0,.82031,21.30127c.2793,0,.5612-.01091.84375-.033a95.61527,95.61527,0,0,0,20.90951-4.0057q.2617-.0813.51627-.17464.22656-.06079.45313-.132.16211-.05225.32291-.10482l.0905-.02946.0345-.01139.11133-.03662.02018-.00635.1211-.0402.01627-.00521.11979-.03987.028-.00928.09961-.03321.056-.01855.05013-.01693c.11654-.03906.22461-.07552.34049-.11491a10.58668,10.58668,0,0,0,6.56576-13.40625,10.75279,10.75279,0,0,0-10.17774-7.29948ZM189.96029,428.917a10.738,10.738,0,0,0-9.10547,5.019l-.485.77294c-.07682.12142-.15039.24431-.22135.36752-.09375.13037-.18555.26367-.27409.39941A75.21133,75.21133,0,0,1,169.319,448.26318a10.66681,10.66681,0,0,0,14.85482,15.312l.0013-.00147q.1172-.11377.23438-.22786l.01041-.01058c.01563-.01481.0306-.02979.04557-.0446l.01433-.01367.03971-.03906.02018-.02.04037-.03923.01432-.01432.03841-.0376.0306-.03011.043-.04248.02214-.02181.03255-.03206.026-.02556.0306-.03027.02669-.02653.02539-.02474.03255-.03239.02084-.02083.03385-.03353.01693-.01693c.06185-.0612.12239-.12174.18424-.18327l.00912-.00911.03971-.03988.01432-.01416.04167-.04134.00912-.00911c.01432-.015.02929-.02995.04427-.04476l.0026-.00277A96.43308,96.43308,0,0,0,197.75456,447.112c.09114-.13981.17773-.28125.26106-.42367.09375-.13216.18555-.26676.27409-.40429.02149-.033.043-.06739.06446-.10043l.00846-.01416q.11621-.18237.23177-.36507l.01888-.03011.0319-.05078c.14128-.22445.28386-.45329.42318-.679a10.62627,10.62627,0,0,0-9.10807-16.12744Zm11.99218-56.60172a10.73688,10.73688,0,0,0-10.64518,12.1206l.11849.90576q.02734.21339.0638.42383.01563.24024.043.48226a76.06318,76.06318,0,0,1,.02474,16.61442,10.66651,10.66651,0,0,0,9.44987,11.758,10.79666,10.79666,0,0,0,1.16732.06347,10.66838,10.66838,0,0,0,10.58594-9.46858q.30468-2.783.44791-5.60775v-.002c.00912-.17579.01758-.34766.02539-.52377l.00065-.0153.00261-.057.00065-.02214c.0013-.0192.00195-.04215.0026-.06136l.00066-.01465.0026-.05957.0013-.02148c.00065-.01921.0013-.03825.00261-.05746l.00065-.02.00195-.05647.0013-.02377.002-.05615.0013-.02165.00195-.05517.0013-.02637.002-.05257.0013-.02865c.00065-.01611.0013-.03173.0013-.04785l.0013-.03255.002-.05029.00066-.006c.00065-.02229.0013-.04882.0026-.07128v-.00407c.0013-.04167.0026-.07976.00456-.12142l.00065-.03125.00195-.04964.00065-.027.002-.05078.00065-.03028.00195-.04524.00065-.03467.0013-.041.002-.04134.00065-.03841.0013-.03939.0013-.04232.0013-.03743.00131-.04378.00065-.03353c.00065-.01612.0013-.02963.0013-.04558l.0013-.03483.0013-.04638.00065-.02995c.00065-.01611.00131-.0332.00131-.04915l.0013-.03239.0013-.04655.00065-.04216.0013-.03467c0-.02116.00065-.04248.00131-.06364l.00065-.01643.002-.08073v-.01058l.00195-.069.00065-.029.00065-.05192.00131-.03564.00065-.04232.00065-.03939.0013-.04215.00065-.03792.00065-.04167.00065-.03809.00066-.04264.00065-.03906.0013-.03955.00065-.041.00065-.0389.00065-.04215.00065-.03793.00065-.04036.00065-.04167.00066-.03987.00065-.04069.00065-.0376v-.04346l.00065-.03841.0013-.06706v-.0096l.00195-.1639v-.01595l.00065-.06348.00066-.02506v-.05892l.00065-.01791v-.06119l.00065-.02588v-.05518l.00065-.02881v-.049l.00065-.03418v-.08138l.00065-.04443v-.08024l.00065-.03841v-.12744l.00065-.03239v-.2417h0v-.24512l-.00065-.03418v-.12793l-.00065-.03906v-.08089c0-.016,0-.03207-.00065-.04818v-.084l-.00065-.03141v-.06348l-.00065-.01627c0-.05567-.00065-.11117-.0013-.16667v-.01627l-.00066-.06478-.00065-.02539c0-.01953,0-.0389-.00065-.05843v-.02474l-.00065-.0573v-.02539l-.0013-.05875v-.02523l-.00065-.05322-.00065-.03174-.00065-.05192-.00065-.02995-.00066-.05973-.00065-.01986-.00065-.07292-.00065-.00992c-.00065-.05632-.00195-.11247-.0026-.16879v-.00032l-.002-.083v-.008l-.0013-.07308-.00065-.01741c0-.02165-.00065-.043-.0013-.06478v-.02116c-.00065-.021-.0013-.04232-.0013-.06331l-.00065-.01709-.00131-.06771-.00065-.01611c-.00065-.02507-.0013-.05046-.0013-.07552l-.00065-.00424c-.00326-.14046-.00651-.28141-.01042-.42187l-.00065-.00635-.00195-.07845v-.00553l-.00261-.07731v-.00847c-.00065-.02653-.0013-.05306-.0026-.07959v-.00146q-.12012-3.946-.554-7.80811c-.02018-.182-.04557-.36263-.07421-.54118-.01172-.15755-.0267-.31608-.04493-.47461q-.0664-.54492-.14-1.089c-.00521-.0415-.01107-.08284-.01693-.12434l-.0039-.02946-.002-.01514c-.00911-.06852-.01823-.13509-.028-.20361a10.587,10.587,0,0,0-10.47136-9.08366ZM175.03906,321.106a10.56929,10.56929,0,0,0-7.80859,3.43554,10.74432,10.74432,0,0,0,.5957,15.11882l.66927.62256q.1582.147.32032.28613.166.175.34179.34456a75.24419,75.24419,0,0,1,10.59375,12.756,10.66637,10.66637,0,1,0,17.81641-11.73291q-1.65234-2.51027-3.45638-4.90837l-.00586-.00846c-.06576-.08741-.13216-.17481-.19792-.262l-.0013-.0013-.04622-.06136-.00912-.012-.03776-.04932-.01432-.01921-.03516-.04606-.01237-.01627-.03385-.04427-.01693-.0223-.03776-.04916-.00911-.01188c-.015-.02034-.03125-.04085-.04688-.0612l-.015-.02018-.03386-.04427-.01692-.02132-.02865-.03792-.02214-.02865-.02669-.03434-.02148-.02865-.02344-.02962-.02539-.0332-.02083-.02751c-.03711-.04753-.07487-.09652-.11133-.144l-.00456-.00554-.03255-.042-.01563-.01986-.0319-.04134-.01367-.01774-.0332-.0428-.01172-.01433c-.01237-.0166-.02409-.03125-.03711-.04785l-.00326-.00439c-.07226-.09245-.14388-.18392-.21614-.276l-.00586-.00733-.04167-.05306-.00065-.00114q-2.96484-3.76611-6.2845-7.217l-.00586-.00651-.04493-.04655-.0052-.005-.04623-.04851-.00065-.00016c-.04752-.04964-.09766-.10156-.14583-.1512l-.00456-.00472-.03581-.03679-.02018-.0205-.0319-.033-.02214-.02295-.03059-.03109-.02344-.02393-.03125-.03239-.026-.02685-.02539-.02588-.04037-.0415-.03125-.03207-.03581-.03613-.026-.02669-.02734-.02784-.02669-.027-.03191-.03239-.02018-.02067-.0358-.03695-.01889-.01872-.04622-.04736-.00651-.00651q-.08691-.0879-.17383-.17578l-.0013-.00082-.11523-.11621-.00261-.00244q-.7041-.70752-1.42187-1.40039-.19824-.19092-.40365-.36963-.165-.17237-.33854-.33838l-.11328-.10693-.07813-.07308c-.02148-.02051-.043-.04069-.0651-.0612l-.0332-.03125-.07487-.06982-.03581-.03369-.04623-.04281-.07877-.07373-.01563-.01416q-.21191-.1975-.42578-.39372l-.00911-.008c-.0306-.02849-.06185-.05681-.09245-.08529a10.56473,10.56473,0,0,0-7.11719-2.75016Z" style="fill:#3d180b"/><circle cx="117.33333" cy="394.66667" r="32" style="fill:#fff8c6"/><rect x="362.66667" y="298.66667" width="42.66667" height="64" rx="21.33331" ry="21.33331" style="fill:#ffd432"/><circle cx="394.66667" cy="309.33333" r="10.66667" style="fill:#ffef7d"/><rect x="448" y="298.66667" width="42.66667" height="64" rx="21.33331" ry="21.33331" style="fill:#ffd432"/><circle cx="480" cy="309.33333" r="10.66667" style="fill:#ffef7d"/><rect x="405.33333" y="298.66667" width="42.66667" height="85.33333" rx="21.33331" ry="21.33331" style="fill:#3d180b"/><circle cx="298.66667" cy="426.66667" r="64" style="fill:#5b2c06"/><path d="M298.66667,362.66667h-.12141l-.05962.00032h-.03772l-.07021.00033-.06886.00032h-.01537q-.2101.00147-.41985.00391h-.01733l-.0382.00065c-.19142.0026-.38073.00586-.57173.01009a10.55077,10.55077,0,0,0-10.22813,10.75586,10.783,10.783,0,0,0,10.76021,10.56934c.0323,0,.06546,0,.09782-.00033l.7904-.00716q.49725-.00439.98273-.05339.48252.07032.97844.09734l.78549.04231c.11956.00651.238.01075.35682.01335.14117.01693.28334.03157.42633.043a42.2596,42.2596,0,0,1,13.68938,3.46907,10.66679,10.66679,0,0,0,8.636-19.50748l-.03847-.01693-.0238-.01042-.062-.02734-.02255-.01009-.06457-.02832-.02085-.00912c-.05573-.02441-.11117-.0485-.167-.07259l-.025-.01107-.05952-.02571-.02682-.0114-.058-.02506-.02728-.01172-.06409-.02767-.0193-.00814-.08483-.03613-.00127-.00065-.0815-.03483-.02883-.01205-.05406-.02311-.03447-.01432-.05062-.02148-.0324-.01368-.05519-.02311-.02842-.012-.16787-.07-.0208-.00879-.06393-.02637-.02694-.01139-.05757-.02376-.02868-.01172-.05951-.02441-.02549-.01042-.06835-.028-.01615-.00683-.08619-.03483-.00937-.00391-.07547-.0306-.02213-.00911-.06363-.02572-.02484-.01009-.06081-.02441-.02644-.01042-.06978-.028-.01355-.00553c-.05853-.02344-.11536-.0459-.174-.069l-.01761-.00716-.06809-.027-.02234-.00879-.06611-.026-.02126-.00814-.06861-.027-.01773-.00683c-.05875-.02311-.11615-.04525-.175-.068l-.012-.00455-.07476-.029-.01806-.00684-.0685-.02637-.02164-.00846-.07289-.028-.01174-.00423-.08771-.03353-.00055-.00032-.09074-.03418-.003-.0013-.08272-.03125-.0171-.00651-.07189-.027-.01759-.00651-.07224-.027-.01547-.00586-.26712-.099-.01024-.00358-.07657-.02832-.01752-.00619-.07649-.028-.00946-.00358c-.09006-.03288-.18245-.06608-.27269-.09863l-.00072-.00033c-.03072-.01074-.05919-.02116-.08993-.03223l-.00414-.0013-.087-.03092-.00481-.002c-.30762-.10937-.61384-.21549-.92361-.32031l-.00114-.00032a63.69273,63.69273,0,0,0-15.31714-3.15365q-.23583-.01806-.46973-.02572-.19977-.02293-.402-.03873c-.55156-.03679-1.102-.06673-1.65731-.08952-.11584-.00358-.231-.00553-.346-.00553q-.44267,0-.87739.03613a10.69592,10.69592,0,0,0-1.22044-.08529c-.0776,0-.15833-.00032-.236-.00032ZM264.92528,374.6888a10.62193,10.62193,0,0,0-6.74629,2.40983A64.39372,64.39372,0,0,0,252.44,382.405l-.0062.00651-.05289.055-.00435.00456q-.141.14794-.28106.29622l-.00357.00391-.05077.054-.009.00944-.048.0511-.01173.01237-.04805.05143-.00855.00912-.05071.05436-.00054.00065q-.10959.11719-.21888.23568l-.0105.01139-.04618.05013-.01283.01367-.04521.04916-.01394.0153-.04515.04915-.01091.012c-.0697.07584-.13953.15266-.20886.22916l-.00922.01009-.04294.0472-.01741.01953-.04086.04493-.01791.01985-.04047.04493-.01748.01953-.042.04687-.01293.01432-.14133.15821-.01639.01823-.03953.04459-.01872.02084-.038.043-.02213.02506-.036.04069-.02248.02539-.03606.041-.02292.02571-.036.041-.01826.02083-.07447.085-.0199.02279-.03555.04069-.02251.02572-.03569.041-.02314.02669-.03441.03939-.023.02669-.0373.043-.01807.02084-.039.04524-.01741.02019c-.04476.05175-.08931.10384-.1339.1556l-.01639.0192-.03733.04362-.02122.02507-.03655.04264-.01992.02344-.03666.043-.02118.02506-.03712.04362-.01661.01986-.04054.04785-.0091.01074-.08884.10547-.011.013-.03859.0459-.01754.02083-.0384.0459-.01795.02148-.03947.04721-.016.0192-.03924.0472-.017.02051-.0405.0485-.00856.01042c-.04874.05892-.09738.11751-.14592.17676l-.00738.00879-.04045.04915-.01551.01888-.03856.0472-.01775.02148-.03827.04688-.01615.01986-.03921.04785-.01586.01953-.04024.04948-.005.00618c-.0476.0586-.09433.11654-.14173.17513l-.01375.01726-.03892.04817-.01628.02019-.038.04752-.01673.02083-.03846.04818-.01576.01953-.03921.04916-.01108.014c-.06357.07976-.12734.16016-.19054.24024l-.01081.01367-.04269.054-.00991.01269-.04319.055-.01048.01334-.04321.055-.00736.00944c-.06581.084-.13181.16895-.19721.25326l-.00287.00391-.04295.05533-.01117.01465-.042.05436-.01.013-.04374.057-.00612.00781q-.14875.19386-.29645.389l-.00489.00651-.04711.0625-.00242.00326q-.17409.231-.34609.46354l-.0035.00456q-1.58622,2.14452-2.99444,4.42252c-.09187.14877-.1794.29818-.26312.44955q-.11565.17432-.22554.35416c-.03818.06413-.07587.12728-.11384.19141l-.00508.00846q-.10281.17334-.20449.34733l-.026.0446-.013.02246-.04078.07-.00085.0013q-.21536.37061-.42628.74512a10.54867,10.54867,0,0,0,4.04029,14.27929,10.778,10.778,0,0,0,14.62911-3.9541l.39233-.6761q.08936-.15381.17285-.30925.11919-.17676.23227-.3597a42.86576,42.86576,0,0,1,9.35274-10.67187,10.66692,10.66692,0,0,0-6.75877-18.92416Zm-18.98114,49.33041a10.67625,10.67625,0,0,0-10.56089,12.25618q.38023,2.52588.95451,4.98372l.00089.00391q.0566.24267.11515.485l.00164.00683.01889.0778.00039.00163q.049.20166.09934.403l.00142.00586.01932.07683.00129.00521q.06076.2417.12327.48209l.00124.00488.02007.07715.00136.00521q.06293.24072.12784.48145l.00068.00228q.0651.24169.13208.48209l.0005.002.02224.07976h.00006a63.57561,63.57561,0,0,0,4.97926,12.50814q.1219.23144.25318.4541c.06088.12532.12447.25032.19074.374.03572.06543.07316.13379.1091.19922l.00336.00586q.07028.12792.14112.25521l.00142.0026.02843.05111.01834.03288.01973.03515c.02851.05111.05866.10482.0873.1556l.00441.00781.044.07813.0014.00228c.04754.08431.09416.16634.14208.25032l.001.00163c.06888.12077.13692.23893.20656.35905a10.54615,10.54615,0,0,0,14.357,3.77376,10.78543,10.78543,0,0,0,4.01941-14.61133l-.38315-.68131q-.087-.15431-.17827-.305c-.06124-.12858-.12521-.25586-.19207-.38282a42.17855,42.17855,0,0,1-4.40107-13.40918,10.66842,10.66842,0,0,0-10.53458-9.08007Zm32.76345,41.4528a10.66847,10.66847,0,0,0-3.99868,20.55957q1.13452.45849,2.28985.874l.00226.001.07007.02506.01276.00456.06487.02311.01744.00618c.09366.03353.18839.06706.28225.09994l.02125.00749.05649.01985.02705.00944.0559.01953.0266.00912.05753.02018.01877.00651.19194.06608.03233.01107.05127.01758.03282.01107.05023.01692.0351.01205.05058.01725.03337.01107.06171.02083.06742.02279.03679.01237.05135.01692.03743.0127.0474.01562.04028.01335.04866.01595.037.01237.06012.01986.02485.00814.08517.02767.02746.00911.059.01921.034.01106.05559.01791.02993.00976.06222.01986.02558.00846.07687.02442.00927.00293.0912.02929.00533.00163.08421.02669.01692.00521.07077.02246.02361.00749.06977.02181.01835.00553.08166.02572.00683.002c.06262.01953.12209.03809.1848.0573l.00638.00195.08486.026.01043.00326.08141.02473.01162.00359c.12166.03678.24729.07487.36926.111l.00773.00228.08937.02669.00119.00032a63.56756,63.56756,0,0,0,7.84,1.78842l.00368.00065.09546.0153.00259.00032c.09906.01595.19712.03158.29633.04688l.00012.00032c.031.00456.06159.00944.09261.01433l.01556.00227.07792.012.02162.00325.08059.01237.01242.00163.1919.029.01683.00228.07571.01107.02626.00391.07027.01041.02479.00358.07216.01042.02275.00325.08861.01237.00548.001.0921.013.032.00423.06011.00847.0379.00521.05431.00748.041.00554.0532.00716.03852.00521.05787.00781.059.00814.063.00813.04812.00652.04215.00553.05214.00651.03828.00521.05582.00716.02939.00358.06348.00814.0132.00163q.11581.01464.2317.029l.01108.0013c.024.00293.04852.00618.07254.00879l.015.00195.07382.00879.01075.0013q2.22043.26661,4.4856.37956c.17417.00846.34647.013.519.013.135.01139.27124.01986.40772.026q.82779.02929,1.6608.03744a10.5511,10.5511,0,0,0,10.56342-10.43,10.78322,10.78322,0,0,0-10.52139-10.90429l-.78848-.01758c-.0816-.00195-.16221-.00293-.24343-.00293-.03828,0-.07644.00032-.11464.00065q-.213-.019-.42807-.02962a42.35808,42.35808,0,0,1-13.80479-3.02865,10.63412,10.63412,0,0,0-3.99172-.77929Zm65.554-21.6543a10.776,10.776,0,0,0-9.1544,5.05957l-.4143.66374q-.0948.15184-.18389.30566-.12412.17237-.24256.35091a42.89254,42.89254,0,0,1-9.68874,10.37109,10.66661,10.66661,0,0,0,12.94765,16.95476q.55826-.42676,1.10558-.86524l.00037-.00032.07308-.0586.00285-.00227.07189-.05762.00253-.00228c.07483-.06022.14753-.11882.22207-.17969l.00509-.0039.065-.05306.01432-.01172.05735-.04655.01685-.014.05389-.04395.01824-.015.05623-.04622.01526-.0127.14105-.11621.01848-.0153.05169-.043.02366-.01953.046-.03841.025-.02083.045-.03744.02725-.02279.04247-.03548.02673-.02246.04535-.03808.02487-.02084.06677-.05631.02729-.02279.03991-.03385.0348-.0293.03421-.029.03491-.02962.03315-.02832.03508-.02995.03371-.02865.03561-.03027.02914-.02507.04-.03418.01963-.0166.10756-.09245.00143-.0013.04923-.04231.017-.01465.04691-.04069.01969-.01693.0466-.04037.02023-.01757.04391-.03809.02337-.02051.04565-.03971.01119-.00977q.08925-.07763.17814-.15592l.00083-.00065.05558-.04883.00914-.00814.05264-.04655.01311-.01139.052-.04622.011-.00977.05477-.0485.00492-.00423q.15322-.13623.30562-.27344l.00183-.00163.05894-.05306.00446-.00391a64.33524,64.33524,0,0,0,10.52356-12.21386c.09636-.14519.18895-.29265.27728-.44076q.1221-.17187.23839-.34961c.04014-.0625.07726-.12044.1172-.18327l.00648-.01009q.16167-.25391.321-.50911l.03909-.06283.00275-.00423c.12949-.20833.25958-.42025.38674-.62988a10.54834,10.54834,0,0,0-3.58068-14.40267,10.68565,10.68565,0,0,0-5.59354-1.57552Zm1.55816-52.89486a10.55176,10.55176,0,0,0-4.97475,1.24968,10.78555,10.78555,0,0,0-4.48533,14.47526l.361.69238q.08223.15771.16894.31185.08528.19434.179.387a42.20438,42.20438,0,0,1,3.96737,13.54623,10.66859,10.66859,0,0,0,10.57975,9.41764,10.77611,10.77611,0,0,0,1.26366-.07487,10.66668,10.66668,0,0,0,9.34592-11.81771,63.55009,63.55009,0,0,0-5.98483-20.42806q-.109-.22266-.22675-.4375c-.05655-.12663-.11615-.25358-.17809-.3789-.03457-.06836-.06825-.13477-.10307-.20313l-.00283-.00553-.07537-.14779q-.286-.55761-.58226-1.10872a10.54806,10.54806,0,0,0-9.25232-5.47787Z" style="fill:#3d180b"/><circle cx="298.66667" cy="426.66667" r="21.33333" style="fill:#fff8c6"/><path d="M239.40755,106.66667H196.9431a42.66667,42.66667,0,0,0-42.3838,37.76175l-4.93764,42.66667a42.66666,42.66666,0,0,0,42.38379,47.57158H256Z" style="fill:#b8ddfb"/><path d="M239.40755,106.66667H196.94336a42.667,42.667,0,0,0-42.38412,37.76172h0L154.319,146.508a10.66642,10.66642,0,1,0,21.19141,2.45247l.24088-2.07959A21.32972,21.32972,0,0,1,196.94336,128h23.7181l12.5026,96.45312a10.66684,10.66684,0,0,0,21.16211-2.69986l-9.13932-70.50489-.00391-.03043-.03646-.27881-.0013-.01237-.015-.11361c-.00781-.05794-.01563-.12-.02279-.1779l-.028-.21354c-.00456-.03662-.00912-.07226-.01433-.10888l-.00651-.05209c-.01171-.08838-.02278-.1761-.0345-.26432l-.00521-.04281c-.01107-.08512-.02279-.17334-.03385-.2583l-.04427-.34131c-1.07748-8.314-2.058-15.87972-2.81316-21.70393h0l-2.72005-20.9834Z" style="fill:#99cefa"/><path d="M42.66665,277.33333H183.16344a21.33337,21.33337,0,0,1,15.08495,6.24839l32,32a15.08494,15.08494,0,0,0,21.33332,0l0,0a15.08494,15.08494,0,0,0,0-21.33332l-47.08495-47.08495a42.66667,42.66667,0,0,0-30.16989-12.49677H42.66665A21.33331,21.33331,0,0,0,21.33333,256v0A21.33331,21.33331,0,0,0,42.66665,277.33333Z" style="fill:#8ccd5b"/><path d="M174.32682,234.6665H52.72656a10.66667,10.66667,0,0,0,0,21.33334H174.32682a21.19173,21.19173,0,0,1,15.08464,6.24853l27.74284,27.74186q.208.20826.42513.403.19531.21777.40429.42692l.82943.82975a10.66685,10.66685,0,0,0,15.08529-15.08512l-.83008-.82959c-.13867-.13916-.28125-.27393-.42578-.40365q-.19531-.217-.40365-.4261l-27.74219-27.742h0a42.66706,42.66706,0,0,0-30.16992-12.49691Z" style="fill:#9fe27c"/><rect x="85.33335" y="42.66667" width="277.33329" height="42.66667" rx="21.33331" ry="21.33331" style="fill:#ffd432"/><path d="M341.33331,42.66667A21.33331,21.33331,0,0,1,362.66662,64v0a21.33331,21.33331,0,0,1-21.33331,21.33331H256A21.33331,21.33331,0,0,0,277.33331,64v0A21.33331,21.33331,0,0,0,256,42.66667Z" style="fill:#df8d00"/><rect x="106.66667" y="42.66667" width="149.33333" height="21.33333" rx="10.66666" ry="10.66666" style="fill:#ffef7d"/><rect x="298.66667" y="42.66667" width="42.66667" height="21.33333" rx="10.66666" ry="10.66666" style="fill:#f4ac03"/><rect x="384" y="384" width="64" height="42.66667" rx="21.33331" ry="21.33331" style="fill:#215200"/><path d="M174.32682,234.6665H152.99349a10.66667,10.66667,0,0,0,0,21.33334h21.33333a21.26207,21.26207,0,0,1,7.51367,1.36686,10.66661,10.66661,0,0,0,7.5586-19.94922,42.64249,42.64249,0,0,0-11.11589-2.56722l-.00195-.00016c-.17448-.01628-.34831-.03125-.52344-.04541l-.0013-.00017-.06315-.005-.00326-.00033-.05989-.00455-.00912-.00082-.056-.00423-.00846-.00065-.054-.00407-.01237-.001-.05533-.00406-.00782-.00049-.05859-.00423-.00651-.00049c-.08659-.00619-.17383-.012-.26107-.01774l-.0013-.00017-.0625-.00407-.00716-.00032-.056-.00358-.01367-.00082-.05078-.00309-.01368-.00081-.04948-.00309-.01692-.001-.04883-.00277-.01432-.00081-.04948-.00277-.01628-.001-.05143-.00276-.01172-.00065-.05469-.00293-.01041-.00065-.12891-.00651-.00977-.00049-.05468-.00261-.013-.00065-.05079-.00244-.01562-.00081L176.25,234.71l-.01628-.00081-.04557-.002-.02148-.001-.04362-.00179-.01953-.00082-.04493-.00195-.01953-.00081-.04557-.00179-.01888-.00066-.043-.00162-.02213-.00082-.04493-.00162-.01823-.00066c-.043-.00162-.08528-.00309-.12825-.00439l-.01563-.00049-.04752-.00163-.02279-.00065-.04036-.00114-.02539-.00081-.03842-.00114-.028-.00065-.03516-.001-.028-.00081-.03581-.001-.02864-.00065-.03646-.00081-.02539-.00065-.03776-.00082-.028-.00065-.03646-.00081-.026-.00049-.03776-.00065-.02734-.00065-.06055-.001h-.0013l-.06315-.00114-.02279-.00032-.04167-.00065-.026-.00033-.03646-.00049-.02734-.00032-.03841-.00033-.02539-.00032-.03711-.00033-.02734-.00033-.03711-.00032-.02735-.00016-.0358-.00033-.028-.00016-.03711-.00017-.02669-.00016-.03776-.00016h-.02539l-.04362-.00016h-.02019l-.0638-.00017Z" style="fill:#caefb7"/><rect x="277.33333" y="277.33333" width="21.33333" height="42.66667" rx="10.66666" ry="10.66666" style="fill:#5b2c06"/><rect x="256" y="277.33333" width="21.33333" height="42.66667" rx="10.66666" ry="10.66666" style="fill:#9fe27c"/><rect x="298.66667" y="277.33333" width="21.33333" height="42.66667" rx="10.66666" ry="10.66666" style="fill:#9fe27c"/><rect x="320" y="277.33333" width="21.33333" height="42.66667" rx="10.66666" ry="10.66666" style="fill:#5b2c06"/></g></svg>