<?xml version="1.0" encoding="UTF-8" standalone="no" ?>
<!DOCTYPE svg PUBLIC "-//W3C//DTD SVG 1.1//EN" "http://www.w3.org/Graphics/SVG/1.1/DTD/svg11.dtd">
<svg xmlns="http://www.w3.org/2000/svg" xmlns:xlink="http://www.w3.org/1999/xlink" version="1.1" width="320" height="240" viewBox="0 0 320 240" xml:space="preserve">
<desc>Created with Fabric.js 3.6.3</desc>
<defs>
</defs>
<g transform="matrix(0.92 0 0 0.92 160.38 117.38)"  >
<g style=""   >
		<g transform="matrix(1 0 0 1 58.67 -80)" id="surface1"  >
<path style="stroke: none; stroke-width: 1; stroke-dasharray: none; stroke-linecap: butt; stroke-dashoffset: 0; stroke-linejoin: miter; stroke-miterlimit: 4; fill: rgb(153,204,249); fill-rule: nonzero; opacity: 1;"  transform=" translate(-186.67, -48)" d="M 176 32 C 173.054688 32 170.667969 34.386719 170.667969 37.332031 C 170.667969 40.277344 173.054688 42.667969 176 42.667969 L 181.332031 42.667969 C 187.222656 42.667969 192 47.441406 192 53.332031 L 192 64 L 202.667969 64 L 202.667969 53.332031 C 202.667969 41.550781 193.117188 32 181.332031 32 Z M 176 32" stroke-linecap="round" />
</g>
		<g transform="matrix(1 0 0 1 69.33 -64)" id="surface1"  >
<path style="stroke: none; stroke-width: 1; stroke-dasharray: none; stroke-linecap: butt; stroke-dashoffset: 0; stroke-linejoin: miter; stroke-miterlimit: 4; fill: rgb(99,173,244); fill-rule: nonzero; opacity: 1;"  transform=" translate(-197.33, -64)" d="M 197.332031 53.332031 C 200.277344 53.332031 202.667969 55.722656 202.667969 58.667969 L 202.667969 69.332031 C 202.667969 72.277344 200.277344 74.667969 197.332031 74.667969 C 194.386719 74.667969 192 72.277344 192 69.332031 L 192 58.667969 C 192 55.722656 194.386719 53.332031 197.332031 53.332031 Z M 197.332031 53.332031" stroke-linecap="round" />
</g>
		<g transform="matrix(1 0 0 1 69.33 -5.33)" id="surface1"  >
<path style="stroke: none; stroke-width: 1; stroke-dasharray: none; stroke-linecap: butt; stroke-dashoffset: 0; stroke-linejoin: miter; stroke-miterlimit: 4; fill: rgb(198,226,249); fill-rule: nonzero; opacity: 1;"  transform=" translate(-197.33, -122.67)" d="M 202.667969 181.332031 L 192 181.332031 C 186.109375 181.332031 181.332031 176.558594 181.332031 170.667969 L 181.332031 74.667969 C 181.332031 68.777344 186.109375 64 192 64 L 202.667969 64 C 208.558594 64 213.332031 68.777344 213.332031 74.667969 L 213.332031 170.667969 C 213.332031 176.558594 208.558594 181.332031 202.667969 181.332031 Z M 202.667969 181.332031" stroke-linecap="round" />
</g>
		<g transform="matrix(1 0 0 1 64 0)" id="surface1"  >
<path style="stroke: none; stroke-width: 1; stroke-dasharray: none; stroke-linecap: butt; stroke-dashoffset: 0; stroke-linejoin: miter; stroke-miterlimit: 4; fill: rgb(153,204,249); fill-rule: nonzero; opacity: 1;"  transform=" translate(-192, -128)" d="M 181.332031 170.667969 L 181.332031 85.332031 C 181.332031 79.441406 186.109375 74.667969 192 74.667969 C 197.890625 74.667969 202.667969 79.441406 202.667969 85.332031 L 202.667969 170.667969 C 202.667969 176.558594 197.890625 181.332031 192 181.332031 C 186.109375 181.332031 181.332031 176.558594 181.332031 170.667969 Z M 181.332031 170.667969" stroke-linecap="round" />
</g>
		<g transform="matrix(1 0 0 1 69.33 16)" id="surface1"  >
<path style="stroke: none; stroke-width: 1; stroke-dasharray: none; stroke-linecap: butt; stroke-dashoffset: 0; stroke-linejoin: miter; stroke-miterlimit: 4; fill: rgb(153,204,249); fill-rule: nonzero; opacity: 1;"  transform=" translate(-197.33, -144)" d="M 197.332031 128 C 206.167969 128 213.332031 135.164062 213.332031 144 C 213.332031 152.835938 206.167969 160 197.332031 160 C 188.496094 160 181.332031 152.835938 181.332031 144 C 181.332031 135.164062 188.496094 128 197.332031 128 Z M 197.332031 128" stroke-linecap="round" />
</g>
		<g transform="matrix(1 0 0 1 58.67 -26.67)" id="surface1"  >
<path style="stroke: none; stroke-width: 1; stroke-dasharray: none; stroke-linecap: butt; stroke-dashoffset: 0; stroke-linejoin: miter; stroke-miterlimit: 4; fill: rgb(99,173,244); fill-rule: nonzero; opacity: 1;"  transform=" translate(-186.67, -101.33)" d="M 192 101.332031 C 192 104.277344 189.613281 106.667969 186.667969 106.667969 C 183.722656 106.667969 181.332031 104.277344 181.332031 101.332031 C 181.332031 98.386719 183.722656 96 186.667969 96 C 189.613281 96 192 98.386719 192 101.332031 Z M 192 101.332031" stroke-linecap="round" />
</g>
		<g transform="matrix(1 0 0 1 58.67 -48)" id="surface1"  >
<path style="stroke: none; stroke-width: 1; stroke-dasharray: none; stroke-linecap: butt; stroke-dashoffset: 0; stroke-linejoin: miter; stroke-miterlimit: 4; fill: rgb(99,173,244); fill-rule: nonzero; opacity: 1;"  transform=" translate(-186.67, -80)" d="M 192 80 C 192 82.945312 189.613281 85.332031 186.667969 85.332031 C 183.722656 85.332031 181.332031 82.945312 181.332031 80 C 181.332031 77.054688 183.722656 74.667969 186.667969 74.667969 C 189.613281 74.667969 192 77.054688 192 80 Z M 192 80" stroke-linecap="round" />
</g>
		<g transform="matrix(1 0 0 1 80 -48)" id="surface1"  >
<path style="stroke: none; stroke-width: 1; stroke-dasharray: none; stroke-linecap: butt; stroke-dashoffset: 0; stroke-linejoin: miter; stroke-miterlimit: 4; fill: rgb(153,204,249); fill-rule: nonzero; opacity: 1;"  transform=" translate(-208, -80)" d="M 213.332031 80 C 213.332031 82.945312 210.945312 85.332031 208 85.332031 C 205.054688 85.332031 202.667969 82.945312 202.667969 80 C 202.667969 77.054688 205.054688 74.667969 208 74.667969 C 210.945312 74.667969 213.332031 77.054688 213.332031 80 Z M 213.332031 80" stroke-linecap="round" />
</g>
		<g transform="matrix(1 0 0 1 69.33 -37.33)" id="surface1"  >
<path style="stroke: none; stroke-width: 1; stroke-dasharray: none; stroke-linecap: butt; stroke-dashoffset: 0; stroke-linejoin: miter; stroke-miterlimit: 4; fill: rgb(99,173,244); fill-rule: nonzero; opacity: 1;"  transform=" translate(-197.33, -90.67)" d="M 202.667969 90.667969 C 202.667969 93.613281 200.277344 96 197.332031 96 C 194.386719 96 192 93.613281 192 90.667969 C 192 87.722656 194.386719 85.332031 197.332031 85.332031 C 200.277344 85.332031 202.667969 87.722656 202.667969 90.667969 Z M 202.667969 90.667969" stroke-linecap="round" />
</g>
		<g transform="matrix(1 0 0 1 80 -26.67)" id="surface1"  >
<path style="stroke: none; stroke-width: 1; stroke-dasharray: none; stroke-linecap: butt; stroke-dashoffset: 0; stroke-linejoin: miter; stroke-miterlimit: 4; fill: rgb(153,204,249); fill-rule: nonzero; opacity: 1;"  transform=" translate(-208, -101.33)" d="M 213.332031 101.332031 C 213.332031 104.277344 210.945312 106.667969 208 106.667969 C 205.054688 106.667969 202.667969 104.277344 202.667969 101.332031 C 202.667969 98.386719 205.054688 96 208 96 C 210.945312 96 213.332031 98.386719 213.332031 101.332031 Z M 213.332031 101.332031" stroke-linecap="round" />
</g>
		<g transform="matrix(1 0 0 1 80 -5.33)" id="surface1"  >
<path style="stroke: none; stroke-width: 1; stroke-dasharray: none; stroke-linecap: butt; stroke-dashoffset: 0; stroke-linejoin: miter; stroke-miterlimit: 4; fill: rgb(153,204,249); fill-rule: nonzero; opacity: 1;"  transform=" translate(-208, -122.67)" d="M 213.332031 122.667969 C 213.332031 125.613281 210.945312 128 208 128 C 205.054688 128 202.667969 125.613281 202.667969 122.667969 C 202.667969 119.722656 205.054688 117.332031 208 117.332031 C 210.945312 117.332031 213.332031 119.722656 213.332031 122.667969 Z M 213.332031 122.667969" stroke-linecap="round" />
</g>
		<g transform="matrix(1 0 0 1 69.33 -16)" id="surface1"  >
<path style="stroke: none; stroke-width: 1; stroke-dasharray: none; stroke-linecap: butt; stroke-dashoffset: 0; stroke-linejoin: miter; stroke-miterlimit: 4; fill: rgb(99,173,244); fill-rule: nonzero; opacity: 1;"  transform=" translate(-197.33, -112)" d="M 202.667969 112 C 202.667969 114.945312 200.277344 117.332031 197.332031 117.332031 C 194.386719 117.332031 192 114.945312 192 112 C 192 109.054688 194.386719 106.667969 197.332031 106.667969 C 200.277344 106.667969 202.667969 109.054688 202.667969 112 Z M 202.667969 112" stroke-linecap="round" />
</g>
		<g transform="matrix(1 0 0 1 64 85.33)" id="surface1"  >
<path style="stroke: none; stroke-width: 1; stroke-dasharray: none; stroke-linecap: butt; stroke-dashoffset: 0; stroke-linejoin: miter; stroke-miterlimit: 4; fill: rgb(58,22,10); fill-rule: nonzero; opacity: 1;"  transform=" translate(-192, -213.33)" d="M 224 213.332031 C 224 231.007812 209.671875 245.332031 192 245.332031 C 174.328125 245.332031 160 231.007812 160 213.332031 C 160 195.660156 174.328125 181.332031 192 181.332031 C 209.671875 181.332031 224 195.660156 224 213.332031 Z M 224 213.332031" stroke-linecap="round" />
</g>
		<g transform="matrix(1 0 0 1 -26.67 69.33)" id="surface1"  >
<path style="stroke: none; stroke-width: 1; stroke-dasharray: none; stroke-linecap: butt; stroke-dashoffset: 0; stroke-linejoin: miter; stroke-miterlimit: 4; fill: rgb(58,22,10); fill-rule: nonzero; opacity: 1;"  transform=" translate(-101.33, -197.33)" d="M 149.332031 197.332031 C 149.332031 223.84375 127.84375 245.332031 101.332031 245.332031 C 74.824219 245.332031 53.332031 223.84375 53.332031 197.332031 C 53.332031 170.824219 74.824219 149.332031 101.332031 149.332031 C 127.84375 149.332031 149.332031 170.824219 149.332031 197.332031 Z M 149.332031 197.332031" stroke-linecap="round" />
</g>
		<g transform="matrix(1 0 0 1 -1.18 -5.33)" id="surface1"  >
<path style="stroke: none; stroke-width: 1; stroke-dasharray: none; stroke-linecap: butt; stroke-dashoffset: 0; stroke-linejoin: miter; stroke-miterlimit: 4; fill: rgb(30,102,0); fill-rule: nonzero; opacity: 1;"  transform=" translate(-126.82, -122.67)" d="M 64 32 L 160 32 L 170.667969 117.332031 L 214.945312 125.730469 C 226.027344 127.832031 233.558594 138.195312 232.132812 149.382812 L 226.371094 194.691406 C 225.015625 205.347656 215.949219 213.332031 205.207031 213.332031 L 21.332031 213.332031 L 21.332031 128 C 21.332031 116.21875 30.882812 106.667969 42.667969 106.667969 L 53.332031 106.667969 Z M 64 32" stroke-linecap="round" />
</g>
		<g transform="matrix(1 0 0 1 16 -85.33)" id="surface1"  >
<path style="stroke: none; stroke-width: 1; stroke-dasharray: none; stroke-linecap: butt; stroke-dashoffset: 0; stroke-linejoin: miter; stroke-miterlimit: 4; fill: rgb(30,81,0); fill-rule: nonzero; opacity: 1;"  transform=" translate(-144, -42.67)" d="M 138.667969 32 L 149.332031 32 C 155.222656 32 160 36.777344 160 42.667969 C 160 48.558594 155.222656 53.332031 149.332031 53.332031 L 138.667969 53.332031 C 132.777344 53.332031 128 48.558594 128 42.667969 C 128 36.777344 132.777344 32 138.667969 32 Z M 138.667969 32" stroke-linecap="round" />
</g>
		<g transform="matrix(1 0 0 1 -5.33 -42.67)" id="surface1"  >
<path style="stroke: none; stroke-width: 1; stroke-dasharray: none; stroke-linecap: butt; stroke-dashoffset: 0; stroke-linejoin: miter; stroke-miterlimit: 4; fill: rgb(7,132,226); fill-rule: nonzero; opacity: 1;"  transform=" translate(-122.67, -85.33)" d="M 162.371094 53.332031 L 74.667969 53.332031 L 74.667969 117.332031 L 170.667969 117.332031 Z M 162.371094 53.332031" stroke-linecap="round" />
</g>
		<g transform="matrix(1 0 0 1 19.48 -42.71)" id="surface1"  >
<path style="stroke: none; stroke-width: 1; stroke-dasharray: none; stroke-linecap: butt; stroke-dashoffset: 0; stroke-linejoin: miter; stroke-miterlimit: 4; fill: rgb(0,107,224); fill-rule: nonzero; opacity: 1;"  transform=" translate(-147.48, -85.29)" d="M 162.371094 53.332031 L 130.371094 53.332031 C 127.425781 53.332031 125.039062 55.722656 125.039062 58.667969 C 125.039062 61.613281 127.425781 64 130.371094 64 L 152.996094 64 L 159.296875 112.59375 C 159.640625 115.25 161.902344 117.238281 164.578125 117.242188 C 164.808594 117.242188 165.042969 117.226562 165.269531 117.195312 C 168.183594 116.820312 170.242188 114.15625 169.878906 111.242188 L 165.449219 77.09375 L 165.449219 77.082031 L 165.441406 77.027344 L 165.4375 76.992188 L 165.433594 76.964844 L 165.429688 76.921875 L 165.410156 76.796875 C 165.410156 76.785156 165.410156 76.773438 165.40625 76.761719 L 165.40625 76.753906 C 164.757812 71.75 164.164062 67.167969 163.730469 63.824219 Z M 162.371094 53.332031" stroke-linecap="round" />
</g>
		<g transform="matrix(1 0 0 1 -22.52 -5.33)" id="surface1"  >
<path style="stroke: none; stroke-width: 1; stroke-dasharray: none; stroke-linecap: butt; stroke-dashoffset: 0; stroke-linejoin: miter; stroke-miterlimit: 4; fill: rgb(109,191,45); fill-rule: nonzero; opacity: 1;"  transform=" translate(-105.48, -122.67)" d="M 64 32 L 117.332031 32 L 128 117.332031 L 171.796875 124.632812 C 183.085938 126.515625 190.878906 136.96875 189.460938 148.320312 L 183.667969 194.644531 C 182.335938 205.320312 173.257812 213.332031 162.5 213.332031 L 21.332031 213.332031 L 21.332031 128 C 21.332031 116.21875 30.882812 106.667969 42.667969 106.667969 L 53.332031 106.667969 Z M 64 32" stroke-linecap="round" />
</g>
		<g transform="matrix(1 0 0 1 -64 48)" id="surface1"  >
<path style="stroke: none; stroke-width: 1; stroke-dasharray: none; stroke-linecap: butt; stroke-dashoffset: 0; stroke-linejoin: miter; stroke-miterlimit: 4; fill: rgb(53,135,0); fill-rule: nonzero; opacity: 1;"  transform=" translate(-64, -176)" d="M 21.332031 138.667969 L 85.332031 138.667969 C 97.117188 138.667969 106.667969 148.21875 106.667969 160 L 106.667969 213.332031 L 21.332031 213.332031 Z M 21.332031 138.667969" stroke-linecap="round" />
</g>
		<g transform="matrix(1 0 0 1 -42.67 -85.33)" id="surface1"  >
<path style="stroke: none; stroke-width: 1; stroke-dasharray: none; stroke-linecap: butt; stroke-dashoffset: 0; stroke-linejoin: miter; stroke-miterlimit: 4; fill: rgb(76,168,0); fill-rule: nonzero; opacity: 1;"  transform=" translate(-85.33, -42.67)" d="M 74.667969 32 L 96 32 C 101.890625 32 106.667969 36.777344 106.667969 42.667969 C 106.667969 48.558594 101.890625 53.332031 96 53.332031 L 74.667969 53.332031 C 68.777344 53.332031 64 48.558594 64 42.667969 C 64 36.777344 68.777344 32 74.667969 32 Z M 74.667969 32" stroke-linecap="round" />
</g>
		<g transform="matrix(1 0 0 1 -58.67 48)" id="surface1"  >
<path style="stroke: none; stroke-width: 1; stroke-dasharray: none; stroke-linecap: butt; stroke-dashoffset: 0; stroke-linejoin: miter; stroke-miterlimit: 4; fill: rgb(58,22,10); fill-rule: nonzero; opacity: 1;"  transform=" translate(-69.33, -176)" d="M 53.332031 138.667969 L 85.332031 138.667969 C 97.117188 138.667969 106.667969 148.21875 106.667969 160 L 106.667969 213.332031 L 32 213.332031 L 32 160 C 32 148.21875 41.550781 138.667969 53.332031 138.667969 Z M 53.332031 138.667969" stroke-linecap="round" />
</g>
		<g transform="matrix(1 0 0 1 16 64)" id="surface1"  >
<path style="stroke: none; stroke-width: 1; stroke-dasharray: none; stroke-linecap: butt; stroke-dashoffset: 0; stroke-linejoin: miter; stroke-miterlimit: 4; fill: rgb(58,22,10); fill-rule: nonzero; opacity: 1;"  transform=" translate(-144, -192)" d="M 138.667969 170.667969 L 149.332031 170.667969 C 161.117188 170.667969 170.667969 180.21875 170.667969 192 L 170.667969 213.332031 L 117.332031 213.332031 L 117.332031 192 C 117.332031 180.21875 126.882812 170.667969 138.667969 170.667969 Z M 138.667969 170.667969" stroke-linecap="round" />
</g>
		<g transform="matrix(1 0 0 1 -69.33 69.33)" id="surface1"  >
<path style="stroke: none; stroke-width: 1; stroke-dasharray: none; stroke-linecap: butt; stroke-dashoffset: 0; stroke-linejoin: miter; stroke-miterlimit: 4; fill: rgb(89,43,5); fill-rule: nonzero; opacity: 1;"  transform=" translate(-58.67, -197.33)" d="M 106.667969 197.332031 C 106.667969 223.84375 85.175781 245.332031 58.667969 245.332031 C 32.15625 245.332031 10.667969 223.84375 10.667969 197.332031 C 10.667969 170.824219 32.15625 149.332031 58.667969 149.332031 C 85.175781 149.332031 106.667969 170.824219 106.667969 197.332031 Z M 106.667969 197.332031" stroke-linecap="round" />
</g>
		<g transform="matrix(1 0 0 1 -69.01 69.27)" id="surface1"  >
<path style="stroke: none; stroke-width: 1; stroke-dasharray: none; stroke-linecap: butt; stroke-dashoffset: 0; stroke-linejoin: miter; stroke-miterlimit: 4; fill: rgb(58,22,10); fill-rule: nonzero; opacity: 1;"  transform=" translate(-58.99, -197.27)" d="M 58.667969 149.332031 L 58.429688 149.332031 L 58.398438 149.335938 L 58.199219 149.335938 C 58.136719 149.335938 58.070312 149.335938 58.007812 149.335938 C 55.09375 149.390625 52.769531 151.789062 52.808594 154.703125 C 52.847656 157.636719 55.238281 160 58.175781 160.003906 L 58.207031 160.003906 L 58.667969 160 C 58.992188 160 59.320312 159.964844 59.640625 159.90625 C 59.957031 159.984375 60.28125 160.03125 60.605469 160.050781 L 61.0625 160.074219 C 61.132812 160.078125 61.207031 160.082031 61.277344 160.082031 C 61.355469 160.09375 61.4375 160.101562 61.519531 160.105469 C 64.277344 160.3125 67.003906 160.828125 69.648438 161.636719 C 72.460938 162.503906 75.445312 160.921875 76.3125 158.105469 C 77.175781 155.289062 75.59375 152.304688 72.777344 151.441406 C 71.851562 151.15625 70.910156 150.898438 69.960938 150.667969 L 69.921875 150.660156 L 69.917969 150.660156 L 69.882812 150.652344 L 69.878906 150.648438 C 69.8125 150.632812 69.746094 150.617188 69.679688 150.601562 L 69.675781 150.601562 L 69.640625 150.59375 L 69.632812 150.59375 L 69.605469 150.585938 L 69.59375 150.582031 L 69.5625 150.574219 L 69.554688 150.574219 L 69.519531 150.566406 L 69.515625 150.566406 L 69.476562 150.554688 C 69.4375 150.546875 69.398438 150.539062 69.355469 150.527344 L 69.351562 150.527344 L 69.320312 150.519531 L 69.308594 150.515625 L 69.28125 150.511719 L 69.265625 150.507812 L 69.242188 150.5 L 69.230469 150.5 L 69.199219 150.492188 L 69.1875 150.492188 L 69.160156 150.484375 L 69.148438 150.480469 L 69.125 150.476562 L 69.078125 150.464844 L 69.074219 150.464844 L 69.035156 150.457031 L 69.023438 150.453125 L 68.996094 150.449219 L 68.976562 150.445312 L 68.957031 150.4375 L 68.917969 150.429688 L 68.902344 150.425781 L 68.878906 150.421875 L 68.863281 150.417969 L 68.839844 150.414062 L 68.824219 150.410156 L 68.800781 150.40625 L 68.785156 150.402344 L 68.761719 150.398438 L 68.746094 150.394531 L 68.722656 150.386719 L 68.707031 150.386719 L 68.667969 150.378906 L 68.65625 150.375 L 68.628906 150.367188 L 68.613281 150.363281 L 68.496094 150.339844 L 68.472656 150.335938 L 68.457031 150.332031 L 68.433594 150.328125 L 68.417969 150.324219 L 68.394531 150.320312 L 68.378906 150.316406 L 68.304688 150.300781 L 68.289062 150.296875 L 68.265625 150.292969 L 68.070312 150.253906 L 68.054688 150.25 L 68.027344 150.246094 L 68.015625 150.242188 L 67.984375 150.238281 L 67.972656 150.234375 L 67.9375 150.226562 L 67.925781 150.226562 L 67.894531 150.21875 L 67.882812 150.21875 L 67.859375 150.210938 L 67.84375 150.210938 L 67.820312 150.203125 L 67.804688 150.203125 L 67.777344 150.195312 L 67.765625 150.195312 L 67.738281 150.191406 L 67.726562 150.1875 L 67.699219 150.183594 L 67.6875 150.179688 L 67.660156 150.175781 L 67.613281 150.164062 L 67.609375 150.164062 L 67.566406 150.15625 L 67.527344 150.148438 L 67.523438 150.148438 L 67.488281 150.140625 L 67.476562 150.140625 L 67.449219 150.136719 L 67.4375 150.132812 L 67.410156 150.128906 L 67.398438 150.125 L 67.367188 150.121094 L 67.359375 150.117188 L 67.328125 150.113281 L 67.320312 150.109375 L 67.28125 150.105469 C 67.226562 150.09375 67.171875 150.085938 67.117188 150.074219 L 67.113281 150.074219 L 67.078125 150.066406 L 67.070312 150.066406 L 67.035156 150.0625 L 67.03125 150.058594 L 66.996094 150.054688 L 66.992188 150.050781 L 66.953125 150.046875 C 65.429688 149.78125 63.886719 149.589844 62.316406 149.46875 C 62.226562 149.464844 62.136719 149.457031 62.046875 149.457031 C 61.964844 149.449219 61.886719 149.441406 61.804688 149.433594 L 61.738281 149.429688 L 61.734375 149.429688 L 61.632812 149.421875 C 61.546875 149.417969 61.464844 149.414062 61.378906 149.410156 C 61.300781 149.40625 61.222656 149.402344 61.148438 149.398438 L 61.136719 149.394531 L 61.082031 149.394531 C 61 149.390625 60.917969 149.386719 60.839844 149.386719 C 60.527344 149.386719 60.210938 149.414062 59.902344 149.46875 C 59.523438 149.382812 59.132812 149.335938 58.738281 149.332031 Z M 39.851562 153.691406 C 39.039062 153.691406 38.242188 153.875 37.515625 154.234375 C 36.5625 154.699219 35.628906 155.199219 34.714844 155.726562 L 34.710938 155.730469 L 34.683594 155.746094 L 34.675781 155.75 L 34.648438 155.765625 L 34.644531 155.769531 C 34.605469 155.789062 34.566406 155.8125 34.53125 155.835938 L 34.5 155.851562 L 34.488281 155.859375 L 34.46875 155.871094 L 34.453125 155.878906 L 34.4375 155.890625 L 34.417969 155.898438 L 34.402344 155.910156 L 34.382812 155.921875 L 34.367188 155.929688 L 34.335938 155.949219 L 34.332031 155.949219 L 34.300781 155.96875 L 34.292969 155.972656 L 34.265625 155.988281 L 34.257812 155.996094 L 34.230469 156.007812 L 34.222656 156.015625 L 34.195312 156.03125 L 34.1875 156.035156 C 34.140625 156.0625 34.09375 156.089844 34.046875 156.117188 C 34.035156 156.125 34.023438 156.132812 34.011719 156.140625 L 33.980469 156.160156 L 33.972656 156.164062 L 33.941406 156.183594 C 32.644531 156.964844 31.386719 157.804688 30.171875 158.703125 L 30.167969 158.703125 L 30.140625 158.726562 L 30.132812 158.730469 L 30.109375 158.746094 L 30.097656 158.757812 L 30.078125 158.769531 L 30.066406 158.777344 L 30.046875 158.792969 L 30.035156 158.804688 L 30.003906 158.824219 L 29.992188 158.835938 L 29.976562 158.847656 L 29.957031 158.859375 L 29.945312 158.871094 L 29.925781 158.886719 L 29.914062 158.894531 L 29.894531 158.910156 L 29.886719 158.914062 L 29.859375 158.933594 C 29.402344 159.277344 28.953125 159.628906 28.511719 159.984375 C 28.445312 160.039062 28.382812 160.09375 28.320312 160.148438 C 28.253906 160.199219 28.191406 160.246094 28.128906 160.296875 C 28.113281 160.3125 28.09375 160.328125 28.078125 160.339844 L 28.074219 160.34375 C 27.945312 160.453125 27.8125 160.5625 27.683594 160.671875 L 27.671875 160.679688 C 27.664062 160.6875 27.652344 160.695312 27.640625 160.707031 C 27.617188 160.726562 27.59375 160.75 27.566406 160.769531 C 25.359375 162.667969 25.101562 165.996094 26.988281 168.214844 C 28.898438 170.460938 32.265625 170.746094 34.527344 168.851562 L 34.878906 168.558594 C 34.933594 168.511719 34.984375 168.464844 35.039062 168.417969 C 35.105469 168.371094 35.167969 168.320312 35.230469 168.269531 C 37.386719 166.53125 39.726562 165.035156 42.210938 163.8125 C 44.433594 162.714844 45.609375 160.230469 45.046875 157.816406 C 44.484375 155.398438 42.332031 153.691406 39.851562 153.691406 Z M 19.753906 174.476562 C 17.65625 174.476562 15.75 175.707031 14.890625 177.617188 C 13.910156 179.789062 13.097656 182.027344 12.453125 184.316406 L 12.453125 184.320312 C 12.449219 184.332031 12.445312 184.34375 12.441406 184.359375 C 12.421875 184.425781 12.402344 184.492188 12.386719 184.558594 L 12.382812 184.566406 C 12.378906 184.574219 12.378906 184.585938 12.375 184.597656 L 12.371094 184.605469 L 12.363281 184.636719 L 12.363281 184.644531 L 12.351562 184.679688 L 12.351562 184.683594 L 12.339844 184.722656 C 12.332031 184.75 12.324219 184.777344 12.320312 184.800781 L 12.316406 184.804688 L 12.308594 184.839844 L 12.304688 184.851562 L 12.296875 184.878906 L 12.292969 184.890625 L 12.289062 184.917969 L 12.285156 184.929688 L 12.277344 184.957031 L 12.273438 184.972656 L 12.261719 185.007812 C 12.261719 185.019531 12.257812 185.027344 12.253906 185.039062 L 12.253906 185.046875 L 12.234375 185.125 L 12.230469 185.136719 L 12.222656 185.164062 L 12.21875 185.175781 C 12.21875 185.183594 12.214844 185.191406 12.210938 185.203125 L 12.210938 185.214844 L 12.203125 185.242188 L 12.199219 185.253906 L 12.191406 185.28125 L 12.1875 185.292969 L 12.179688 185.324219 L 12.179688 185.332031 L 12.171875 185.363281 L 12.167969 185.371094 C 12.164062 185.382812 12.164062 185.398438 12.160156 185.410156 L 12.15625 185.417969 L 12.144531 185.464844 L 12.140625 185.488281 L 12.136719 185.503906 L 12.128906 185.523438 L 12.117188 185.582031 L 12.109375 185.601562 L 12.097656 185.660156 L 12.089844 185.679688 C 12.085938 185.695312 12.082031 185.710938 12.078125 185.730469 L 12.078125 185.734375 L 12.070312 185.753906 L 12.0625 185.792969 L 12.058594 185.808594 L 12.054688 185.832031 L 12.050781 185.847656 L 12.042969 185.867188 L 12.039062 185.890625 L 12.035156 185.90625 L 12.03125 185.929688 L 12.023438 185.945312 L 12.011719 186.003906 L 12.003906 186.035156 L 11.996094 186.058594 L 11.976562 186.15625 L 11.96875 186.175781 L 11.957031 186.234375 L 11.953125 186.25 L 11.945312 186.273438 L 11.945312 186.285156 C 11.9375 186.316406 11.929688 186.347656 11.921875 186.375 L 11.921875 186.386719 L 11.910156 186.421875 C 11.910156 186.429688 11.90625 186.441406 11.90625 186.449219 L 11.898438 186.480469 L 11.894531 186.503906 L 11.890625 186.519531 L 11.882812 186.542969 L 11.878906 186.5625 L 11.875 186.578125 L 11.871094 186.601562 L 11.867188 186.617188 L 11.863281 186.636719 L 11.855469 186.671875 L 11.851562 186.695312 L 11.84375 186.714844 L 11.839844 186.734375 L 11.835938 186.75 L 11.832031 186.773438 L 11.816406 186.851562 L 11.808594 186.867188 C 11.808594 186.875 11.808594 186.882812 11.804688 186.890625 L 11.800781 186.90625 L 11.796875 186.925781 C 11.796875 186.9375 11.792969 186.945312 11.792969 186.953125 L 11.789062 186.96875 L 11.78125 187.003906 L 11.777344 187.019531 C 11.777344 187.027344 11.773438 187.035156 11.773438 187.042969 L 11.769531 187.058594 L 11.765625 187.082031 L 11.757812 187.101562 L 11.753906 187.121094 L 11.75 187.136719 L 11.746094 187.160156 L 11.742188 187.175781 L 11.738281 187.203125 L 11.734375 187.214844 L 11.730469 187.242188 L 11.726562 187.257812 L 11.710938 187.332031 L 11.707031 187.34375 L 11.699219 187.375 L 11.699219 187.386719 C 11.695312 187.394531 11.695312 187.402344 11.691406 187.410156 L 11.691406 187.425781 L 11.683594 187.453125 L 11.683594 187.464844 L 11.675781 187.492188 L 11.671875 187.503906 C 11.671875 187.515625 11.667969 187.527344 11.667969 187.535156 L 11.664062 187.542969 C 11.65625 187.585938 11.648438 187.625 11.640625 187.667969 L 11.632812 187.707031 L 11.628906 187.714844 L 11.625 187.742188 L 11.625 187.75 C 11.605469 187.839844 11.589844 187.929688 11.574219 188.019531 C 11.558594 188.09375 11.539062 188.171875 11.523438 188.25 C 11.480469 188.492188 11.433594 188.734375 11.390625 188.976562 C 10.902344 191.847656 12.824219 194.574219 15.695312 195.078125 C 18.597656 195.59375 21.375 193.667969 21.90625 190.761719 L 21.988281 190.316406 C 22.003906 190.246094 22.015625 190.171875 22.023438 190.101562 C 22.042969 190.027344 22.0625 189.945312 22.078125 189.867188 C 22.628906 187.160156 23.476562 184.523438 24.613281 182.003906 C 25.355469 180.355469 25.210938 178.4375 24.230469 176.917969 C 23.25 175.398438 21.5625 174.480469 19.753906 174.476562 Z M 17.515625 203.296875 C 15.851562 203.300781 14.285156 204.074219 13.273438 205.394531 C 12.265625 206.714844 11.929688 208.429688 12.367188 210.035156 C 12.402344 210.167969 12.4375 210.304688 12.476562 210.4375 L 12.484375 210.464844 L 12.488281 210.476562 L 12.496094 210.503906 L 12.5 210.515625 C 12.5 210.523438 12.503906 210.53125 12.507812 210.539062 L 12.511719 210.550781 L 12.515625 210.578125 L 12.519531 210.585938 C 12.523438 210.597656 12.527344 210.605469 12.527344 210.617188 L 12.53125 210.621094 L 12.558594 210.71875 L 12.558594 210.722656 L 12.566406 210.75 L 12.578125 210.785156 L 12.582031 210.800781 L 12.59375 210.835938 L 12.597656 210.859375 L 12.605469 210.875 L 12.609375 210.898438 L 12.617188 210.917969 L 12.621094 210.933594 L 12.632812 210.972656 L 12.636719 210.984375 C 12.636719 210.992188 12.640625 211 12.644531 211.007812 L 12.648438 211.023438 L 12.65625 211.050781 L 12.667969 211.085938 L 12.671875 211.101562 L 12.675781 211.125 L 12.683594 211.140625 L 12.6875 211.164062 L 12.695312 211.179688 L 12.707031 211.214844 C 12.710938 211.230469 12.710938 211.242188 12.714844 211.253906 L 12.71875 211.257812 L 12.726562 211.292969 L 12.730469 211.300781 C 12.734375 211.3125 12.738281 211.320312 12.738281 211.332031 L 12.742188 211.34375 L 12.75 211.371094 L 12.753906 211.382812 L 12.765625 211.410156 L 12.765625 211.417969 L 12.777344 211.449219 L 12.777344 211.457031 L 12.789062 211.492188 L 12.789062 211.496094 L 12.828125 211.617188 L 12.839844 211.652344 L 12.839844 211.660156 L 12.851562 211.691406 L 12.855469 211.699219 L 12.863281 211.734375 L 12.867188 211.738281 C 12.886719 211.804688 12.90625 211.871094 12.929688 211.933594 L 12.929688 211.9375 L 12.941406 211.972656 L 12.941406 211.980469 L 12.953125 212.015625 C 12.957031 212.03125 12.960938 212.042969 12.964844 212.054688 L 12.96875 212.054688 C 12.984375 212.109375 13 212.160156 13.019531 212.214844 L 13.019531 212.21875 C 13.023438 212.230469 13.027344 212.242188 13.03125 212.253906 L 13.03125 212.257812 L 13.042969 212.292969 L 13.046875 212.296875 L 13.058594 212.332031 L 13.058594 212.335938 C 13.074219 212.386719 13.09375 212.441406 13.109375 212.492188 L 13.109375 212.496094 L 13.121094 212.53125 L 13.125 212.539062 L 13.136719 212.570312 L 13.136719 212.574219 L 13.148438 212.609375 L 13.152344 212.617188 C 13.167969 212.667969 13.1875 212.71875 13.203125 212.769531 L 13.203125 212.773438 C 13.207031 212.785156 13.210938 212.796875 13.214844 212.808594 L 13.21875 212.8125 L 13.230469 212.847656 L 13.230469 212.855469 L 13.242188 212.886719 L 13.246094 212.890625 C 13.25 212.902344 13.253906 212.917969 13.257812 212.929688 C 13.277344 212.980469 13.292969 213.035156 13.3125 213.085938 L 13.3125 213.09375 L 13.324219 213.125 L 13.328125 213.132812 L 13.339844 213.164062 L 13.339844 213.171875 C 13.34375 213.179688 13.347656 213.191406 13.351562 213.203125 L 13.355469 213.207031 L 13.367188 213.246094 L 13.394531 213.324219 L 13.394531 213.328125 C 13.398438 213.339844 13.40625 213.351562 13.410156 213.363281 L 13.410156 213.371094 C 13.414062 213.378906 13.417969 213.390625 13.421875 213.398438 L 13.425781 213.410156 L 13.4375 213.4375 L 13.4375 213.445312 C 13.441406 213.457031 13.445312 213.46875 13.449219 213.476562 L 13.453125 213.484375 L 13.464844 213.519531 L 13.464844 213.523438 C 13.472656 213.546875 13.484375 213.574219 13.492188 213.601562 L 13.496094 213.605469 L 13.507812 213.636719 L 13.511719 213.648438 C 13.511719 213.65625 13.515625 213.664062 13.519531 213.675781 L 13.523438 213.683594 L 13.535156 213.710938 L 13.539062 213.722656 L 13.546875 213.75 L 13.550781 213.761719 L 13.5625 213.789062 L 13.566406 213.800781 C 13.574219 213.824219 13.582031 213.847656 13.59375 213.875 L 13.597656 213.882812 L 13.605469 213.910156 L 13.609375 213.921875 L 13.621094 213.949219 L 13.625 213.960938 L 13.632812 213.988281 L 13.640625 214 L 13.648438 214.023438 L 13.652344 214.039062 L 13.664062 214.0625 L 13.667969 214.074219 C 13.671875 214.085938 13.675781 214.09375 13.679688 214.105469 L 13.679688 214.109375 L 13.703125 214.167969 L 13.707031 214.183594 L 13.714844 214.203125 L 13.722656 214.21875 L 13.730469 214.238281 L 13.734375 214.257812 L 13.742188 214.277344 L 13.75 214.292969 L 13.757812 214.3125 L 13.761719 214.332031 L 13.769531 214.351562 L 13.777344 214.367188 L 13.785156 214.386719 L 13.789062 214.402344 C 13.796875 214.417969 13.800781 214.433594 13.808594 214.449219 L 13.8125 214.457031 L 13.820312 214.484375 L 13.835938 214.515625 L 13.851562 214.5625 L 13.863281 214.589844 L 13.875 214.625 L 13.878906 214.632812 C 13.898438 214.6875 13.921875 214.742188 13.941406 214.792969 L 13.941406 214.796875 L 13.957031 214.828125 L 13.957031 214.832031 L 13.96875 214.863281 L 13.972656 214.871094 L 13.984375 214.898438 L 13.984375 214.902344 L 13.996094 214.933594 C 14.671875 216.652344 15.449219 218.324219 16.320312 219.953125 C 16.359375 220.023438 16.398438 220.097656 16.441406 220.167969 C 16.476562 220.242188 16.515625 220.3125 16.550781 220.382812 C 16.5625 220.402344 16.574219 220.425781 16.585938 220.445312 C 16.597656 220.464844 16.609375 220.484375 16.621094 220.503906 L 16.628906 220.519531 L 16.652344 220.5625 C 16.65625 220.570312 16.664062 220.582031 16.667969 220.589844 L 16.679688 220.617188 L 16.703125 220.652344 L 16.726562 220.695312 L 16.734375 220.710938 C 16.78125 220.792969 16.828125 220.875 16.875 220.957031 L 16.878906 220.96875 C 16.886719 220.984375 16.898438 221 16.90625 221.015625 C 18.355469 223.546875 21.578125 224.425781 24.113281 222.984375 C 26.679688 221.527344 27.589844 218.277344 26.152344 215.699219 L 25.933594 215.300781 C 25.898438 215.238281 25.859375 215.179688 25.824219 215.117188 C 25.789062 215.042969 25.753906 214.972656 25.714844 214.902344 C 24.410156 212.464844 23.386719 209.890625 22.65625 207.222656 C 22.019531 204.90625 19.914062 203.300781 17.515625 203.296875 Z M 34.164062 226.929688 C 31.839844 226.929688 29.78125 228.433594 29.078125 230.648438 C 28.375 232.867188 29.1875 235.28125 31.085938 236.625 C 34.003906 238.675781 37.144531 240.398438 40.445312 241.753906 C 40.523438 241.785156 40.601562 241.816406 40.683594 241.84375 C 40.753906 241.875 40.824219 241.90625 40.894531 241.9375 C 41.128906 242.027344 41.359375 242.121094 41.59375 242.207031 C 44.320312 243.230469 47.359375 241.855469 48.394531 239.132812 C 49.441406 236.378906 48.074219 233.292969 45.328125 232.21875 L 44.90625 232.050781 C 44.835938 232.027344 44.769531 232 44.703125 231.976562 C 44.632812 231.945312 44.558594 231.910156 44.484375 231.882812 C 41.925781 230.828125 39.492188 229.492188 37.226562 227.902344 C 36.332031 227.269531 35.261719 226.929688 34.164062 226.929688 Z M 72.300781 232.441406 C 71.730469 232.441406 71.164062 232.535156 70.621094 232.714844 L 70.1875 232.859375 C 70.121094 232.878906 70.050781 232.90625 69.984375 232.929688 C 69.910156 232.949219 69.832031 232.972656 69.753906 232.996094 C 67.113281 233.8125 64.386719 234.335938 61.628906 234.550781 C 58.777344 234.773438 56.605469 237.210938 56.71875 240.074219 C 56.828125 242.933594 59.175781 245.199219 62.039062 245.203125 C 62.179688 245.203125 62.320312 245.195312 62.460938 245.183594 C 66.011719 244.910156 69.519531 244.238281 72.917969 243.183594 C 73.003906 243.15625 73.089844 243.125 73.175781 243.09375 C 73.25 243.074219 73.328125 243.054688 73.402344 243.027344 C 73.457031 243.011719 73.511719 242.996094 73.5625 242.976562 L 73.609375 242.960938 L 73.625 242.957031 L 73.683594 242.9375 L 73.691406 242.933594 L 73.753906 242.914062 L 73.761719 242.914062 L 73.820312 242.890625 L 73.835938 242.886719 L 73.882812 242.871094 L 73.914062 242.863281 L 73.9375 242.851562 C 73.996094 242.832031 74.050781 242.816406 74.109375 242.796875 C 76.859375 241.84375 78.324219 238.851562 77.390625 236.09375 C 76.652344 233.910156 74.605469 232.445312 72.300781 232.441406 Z M 94.980469 214.457031 C 93.132812 214.457031 91.410156 215.402344 90.425781 216.96875 L 90.183594 217.355469 C 90.148438 217.414062 90.109375 217.476562 90.074219 217.539062 C 90.027344 217.601562 89.980469 217.671875 89.9375 217.738281 C 88.417969 220.058594 86.648438 222.203125 84.660156 224.132812 C 82.546875 226.183594 82.5 229.558594 84.546875 231.671875 C 86.597656 233.78125 89.972656 233.835938 92.085938 231.789062 L 92.085938 231.785156 C 92.125 231.75 92.164062 231.710938 92.203125 231.671875 L 92.210938 231.667969 C 92.21875 231.660156 92.226562 231.652344 92.234375 231.644531 L 92.238281 231.636719 L 92.257812 231.617188 L 92.269531 231.609375 L 92.378906 231.5 L 92.394531 231.488281 L 92.421875 231.460938 L 92.433594 231.445312 L 92.449219 231.429688 L 92.460938 231.421875 L 92.476562 231.402344 L 92.488281 231.394531 C 92.519531 231.363281 92.546875 231.332031 92.578125 231.304688 L 92.582031 231.296875 L 92.601562 231.277344 L 92.609375 231.273438 L 92.636719 231.246094 C 92.644531 231.238281 92.652344 231.230469 92.65625 231.222656 L 92.660156 231.222656 C 94.988281 228.886719 97.074219 226.316406 98.878906 223.554688 C 98.921875 223.484375 98.964844 223.414062 99.007812 223.34375 C 99.054688 223.277344 99.101562 223.210938 99.144531 223.140625 C 99.15625 223.125 99.167969 223.109375 99.175781 223.09375 L 99.179688 223.085938 C 99.21875 223.023438 99.257812 222.964844 99.296875 222.902344 L 99.304688 222.886719 L 99.324219 222.863281 C 99.394531 222.75 99.464844 222.636719 99.535156 222.523438 C 100.527344 220.878906 100.558594 218.828125 99.613281 217.160156 C 98.671875 215.488281 96.898438 214.457031 94.980469 214.457031 Z M 100.976562 186.15625 C 99.433594 186.15625 97.960938 186.824219 96.945312 187.984375 C 95.925781 189.144531 95.453125 190.6875 95.652344 192.21875 L 95.710938 192.671875 C 95.722656 192.742188 95.734375 192.8125 95.746094 192.882812 C 95.75 192.960938 95.757812 193.042969 95.765625 193.125 C 96.074219 195.882812 96.078125 198.667969 95.777344 201.429688 C 95.460938 204.359375 97.574219 206.992188 100.503906 207.308594 C 100.699219 207.332031 100.890625 207.339844 101.085938 207.34375 C 103.796875 207.339844 106.074219 205.300781 106.378906 202.609375 C 106.480469 201.679688 106.554688 200.746094 106.605469 199.804688 L 106.605469 199.800781 C 106.609375 199.714844 106.613281 199.628906 106.617188 199.539062 L 106.617188 199.492188 C 106.621094 199.484375 106.621094 199.472656 106.621094 199.460938 L 106.621094 199.414062 C 106.621094 199.40625 106.625 199.394531 106.625 199.386719 L 106.625 199.308594 L 106.628906 199.296875 L 106.628906 199.214844 C 106.632812 199.207031 106.632812 199.199219 106.632812 199.191406 L 106.632812 199.148438 C 106.632812 199.136719 106.632812 199.125 106.632812 199.113281 L 106.632812 199.109375 C 106.636719 199.089844 106.636719 199.070312 106.636719 199.050781 L 106.636719 198.996094 L 106.640625 198.96875 L 106.640625 198.894531 L 106.644531 198.875 L 106.644531 198.757812 C 106.644531 198.75 106.648438 198.742188 106.648438 198.734375 L 106.648438 198.679688 C 106.648438 198.667969 106.648438 198.660156 106.648438 198.652344 L 106.648438 198.613281 L 106.652344 198.59375 L 106.652344 198.574219 C 106.652344 198.566406 106.652344 198.554688 106.652344 198.542969 L 106.652344 198.457031 L 106.65625 198.441406 L 106.65625 198.253906 L 106.660156 198.234375 L 106.660156 198.011719 L 106.664062 197.996094 L 106.664062 197.617188 L 106.667969 197.59375 L 106.667969 197.070312 C 106.667969 197.0625 106.667969 197.054688 106.664062 197.046875 L 106.664062 196.949219 C 106.664062 196.921875 106.664062 196.890625 106.664062 196.863281 L 106.664062 196.8125 C 106.664062 196.800781 106.664062 196.792969 106.664062 196.78125 L 106.664062 196.660156 L 106.660156 196.644531 L 106.660156 196.523438 C 106.660156 196.492188 106.660156 196.464844 106.660156 196.4375 L 106.65625 196.394531 L 106.65625 196.347656 C 106.65625 196.335938 106.65625 196.324219 106.65625 196.3125 L 106.65625 196.304688 C 106.65625 196.292969 106.65625 196.28125 106.65625 196.273438 L 106.65625 196.230469 L 106.652344 196.222656 C 106.652344 196.210938 106.652344 196.195312 106.652344 196.183594 C 106.652344 196.113281 106.648438 196.042969 106.648438 195.972656 L 106.648438 195.925781 L 106.644531 195.886719 L 106.644531 195.882812 C 106.644531 195.871094 106.644531 195.855469 106.644531 195.84375 C 106.605469 194.527344 106.511719 193.226562 106.367188 191.9375 C 106.355469 191.847656 106.34375 191.757812 106.328125 191.667969 C 106.324219 191.589844 106.316406 191.507812 106.308594 191.429688 C 106.285156 191.25 106.261719 191.066406 106.238281 190.886719 C 106.234375 190.863281 106.230469 190.84375 106.230469 190.824219 L 106.226562 190.808594 L 106.226562 190.800781 C 106.222656 190.765625 106.21875 190.734375 106.210938 190.699219 C 105.839844 188.09375 103.609375 186.160156 100.976562 186.15625 Z M 87.519531 160.554688 C 86.035156 160.550781 84.617188 161.175781 83.617188 162.269531 C 81.621094 164.445312 81.753906 167.820312 83.914062 169.832031 L 84.246094 170.140625 C 84.300781 170.191406 84.355469 170.238281 84.40625 170.285156 C 84.464844 170.34375 84.519531 170.398438 84.578125 170.457031 C 86.574219 172.382812 88.351562 174.519531 89.875 176.835938 C 91.496094 179.296875 94.804688 179.980469 97.265625 178.359375 C 99.726562 176.738281 100.40625 173.429688 98.785156 170.96875 C 98.234375 170.132812 97.65625 169.3125 97.054688 168.515625 L 97.054688 168.511719 C 97.019531 168.464844 96.988281 168.421875 96.953125 168.378906 L 96.929688 168.347656 L 96.925781 168.339844 L 96.90625 168.316406 L 96.898438 168.308594 L 96.882812 168.285156 L 96.875 168.277344 L 96.851562 168.242188 L 96.832031 168.21875 L 96.828125 168.210938 C 96.820312 168.203125 96.8125 168.191406 96.804688 168.183594 L 96.796875 168.171875 L 96.777344 168.148438 L 96.769531 168.140625 L 96.757812 168.121094 L 96.746094 168.105469 L 96.730469 168.089844 L 96.722656 168.074219 L 96.710938 168.058594 L 96.695312 168.042969 L 96.6875 168.027344 C 96.667969 168.003906 96.648438 167.980469 96.628906 167.957031 L 96.628906 167.953125 L 96.613281 167.933594 L 96.605469 167.921875 L 96.589844 167.902344 L 96.582031 167.894531 L 96.566406 167.871094 L 96.558594 167.863281 C 96.550781 167.855469 96.546875 167.847656 96.539062 167.839844 C 96.503906 167.792969 96.464844 167.746094 96.429688 167.699219 L 96.425781 167.699219 L 96.40625 167.671875 C 95.417969 166.414062 94.371094 165.210938 93.265625 164.0625 L 93.234375 164.03125 L 93.214844 164.007812 L 93.210938 164.007812 C 93.1875 163.984375 93.164062 163.957031 93.140625 163.933594 L 93.136719 163.929688 L 93.121094 163.910156 L 93.109375 163.902344 L 93.039062 163.832031 L 93.027344 163.816406 L 93.015625 163.804688 L 92.996094 163.78125 L 92.980469 163.765625 L 92.960938 163.75 L 92.949219 163.734375 L 92.933594 163.722656 L 92.921875 163.707031 L 92.894531 163.679688 L 92.875 163.664062 L 92.867188 163.652344 L 92.839844 163.625 C 92.8125 163.597656 92.78125 163.566406 92.753906 163.539062 L 92.695312 163.480469 C 92.460938 163.242188 92.222656 163.011719 91.984375 162.777344 C 91.917969 162.714844 91.851562 162.652344 91.78125 162.59375 C 91.726562 162.535156 91.671875 162.480469 91.613281 162.425781 L 91.554688 162.371094 L 91.515625 162.335938 C 91.507812 162.324219 91.496094 162.316406 91.484375 162.304688 L 91.46875 162.289062 L 91.429688 162.253906 L 91.390625 162.214844 L 91.351562 162.179688 L 91.34375 162.171875 C 91.269531 162.105469 91.199219 162.039062 91.128906 161.976562 L 91.125 161.972656 C 91.109375 161.957031 91.09375 161.941406 91.078125 161.929688 C 90.105469 161.042969 88.835938 160.550781 87.519531 160.554688 Z M 87.519531 160.554688" stroke-linecap="round" />
</g>
		<g transform="matrix(1 0 0 1 -69.33 69.33)" id="surface1"  >
<path style="stroke: none; stroke-width: 1; stroke-dasharray: none; stroke-linecap: butt; stroke-dashoffset: 0; stroke-linejoin: miter; stroke-miterlimit: 4; fill: rgb(255,247,196); fill-rule: nonzero; opacity: 1;"  transform=" translate(-58.67, -197.33)" d="M 74.667969 197.332031 C 74.667969 206.167969 67.503906 213.332031 58.667969 213.332031 C 49.832031 213.332031 42.667969 206.167969 42.667969 197.332031 C 42.667969 188.496094 49.832031 181.332031 58.667969 181.332031 C 67.503906 181.332031 74.667969 188.496094 74.667969 197.332031 Z M 74.667969 197.332031" stroke-linecap="round" />
</g>
		<g transform="matrix(1 0 0 1 64 37.33)" id="surface1"  >
<path style="stroke: none; stroke-width: 1; stroke-dasharray: none; stroke-linecap: butt; stroke-dashoffset: 0; stroke-linejoin: miter; stroke-miterlimit: 4; fill: rgb(255,211,48); fill-rule: nonzero; opacity: 1;"  transform=" translate(-192, -165.33)" d="M 192 149.332031 C 197.890625 149.332031 202.667969 154.109375 202.667969 160 L 202.667969 170.667969 C 202.667969 176.558594 197.890625 181.332031 192 181.332031 C 186.109375 181.332031 181.332031 176.558594 181.332031 170.667969 L 181.332031 160 C 181.332031 154.109375 186.109375 149.332031 192 149.332031 Z M 192 149.332031" stroke-linecap="round" />
</g>
		<g transform="matrix(1 0 0 1 69.33 26.67)" id="surface1"  >
<path style="stroke: none; stroke-width: 1; stroke-dasharray: none; stroke-linecap: butt; stroke-dashoffset: 0; stroke-linejoin: miter; stroke-miterlimit: 4; fill: rgb(255,237,124); fill-rule: nonzero; opacity: 1;"  transform=" translate(-197.33, -154.67)" d="M 202.667969 154.667969 C 202.667969 157.613281 200.277344 160 197.332031 160 C 194.386719 160 192 157.613281 192 154.667969 C 192 151.722656 194.386719 149.332031 197.332031 149.332031 C 200.277344 149.332031 202.667969 151.722656 202.667969 154.667969 Z M 202.667969 154.667969" stroke-linecap="round" />
</g>
		<g transform="matrix(1 0 0 1 106.67 37.33)" id="surface1"  >
<path style="stroke: none; stroke-width: 1; stroke-dasharray: none; stroke-linecap: butt; stroke-dashoffset: 0; stroke-linejoin: miter; stroke-miterlimit: 4; fill: rgb(255,211,48); fill-rule: nonzero; opacity: 1;"  transform=" translate(-234.67, -165.33)" d="M 234.667969 149.332031 C 240.558594 149.332031 245.332031 154.109375 245.332031 160 L 245.332031 170.667969 C 245.332031 176.558594 240.558594 181.332031 234.667969 181.332031 C 228.777344 181.332031 224 176.558594 224 170.667969 L 224 160 C 224 154.109375 228.777344 149.332031 234.667969 149.332031 Z M 234.667969 149.332031" stroke-linecap="round" />
</g>
		<g transform="matrix(1 0 0 1 112 26.67)" id="surface1"  >
<path style="stroke: none; stroke-width: 1; stroke-dasharray: none; stroke-linecap: butt; stroke-dashoffset: 0; stroke-linejoin: miter; stroke-miterlimit: 4; fill: rgb(255,237,124); fill-rule: nonzero; opacity: 1;"  transform=" translate(-240, -154.67)" d="M 245.332031 154.667969 C 245.332031 157.613281 242.945312 160 240 160 C 237.054688 160 234.667969 157.613281 234.667969 154.667969 C 234.667969 151.722656 237.054688 149.332031 240 149.332031 C 242.945312 149.332031 245.332031 151.722656 245.332031 154.667969 Z M 245.332031 154.667969" stroke-linecap="round" />
</g>
		<g transform="matrix(1 0 0 1 85.33 42.67)" id="surface1"  >
<path style="stroke: none; stroke-width: 1; stroke-dasharray: none; stroke-linecap: butt; stroke-dashoffset: 0; stroke-linejoin: miter; stroke-miterlimit: 4; fill: rgb(58,22,10); fill-rule: nonzero; opacity: 1;"  transform=" translate(-213.33, -170.67)" d="M 213.332031 149.332031 C 219.222656 149.332031 224 154.109375 224 160 L 224 181.332031 C 224 187.222656 219.222656 192 213.332031 192 C 207.441406 192 202.667969 187.222656 202.667969 181.332031 L 202.667969 160 C 202.667969 154.109375 207.441406 149.332031 213.332031 149.332031 Z M 213.332031 149.332031" stroke-linecap="round" />
</g>
		<g transform="matrix(1 0 0 1 21.33 85.33)" id="surface1"  >
<path style="stroke: none; stroke-width: 1; stroke-dasharray: none; stroke-linecap: butt; stroke-dashoffset: 0; stroke-linejoin: miter; stroke-miterlimit: 4; fill: rgb(89,43,5); fill-rule: nonzero; opacity: 1;"  transform=" translate(-149.33, -213.33)" d="M 181.332031 213.332031 C 181.332031 231.007812 167.007812 245.332031 149.332031 245.332031 C 131.660156 245.332031 117.332031 231.007812 117.332031 213.332031 C 117.332031 195.660156 131.660156 181.332031 149.332031 181.332031 C 167.007812 181.332031 181.332031 195.660156 181.332031 213.332031 Z M 181.332031 213.332031" stroke-linecap="round" />
</g>
		<g transform="matrix(1 0 0 1 21.39 85.33)" id="surface1"  >
<path style="stroke: none; stroke-width: 1; stroke-dasharray: none; stroke-linecap: butt; stroke-dashoffset: 0; stroke-linejoin: miter; stroke-miterlimit: 4; fill: rgb(58,22,10); fill-rule: nonzero; opacity: 1;"  transform=" translate(-149.39, -213.33)" d="M 149.332031 181.332031 L 149.148438 181.332031 C 149.078125 181.335938 149.007812 181.335938 148.9375 181.335938 L 148.910156 181.335938 C 148.8125 181.335938 148.71875 181.339844 148.625 181.339844 C 145.734375 181.429688 143.453125 183.828125 143.507812 186.71875 C 143.566406 189.652344 145.957031 192 148.890625 192.003906 C 148.90625 192.003906 148.921875 192.003906 148.9375 192.003906 L 149.332031 192 C 149.5 192 149.664062 191.988281 149.824219 191.972656 C 149.984375 191.996094 150.148438 192.011719 150.3125 192.023438 L 150.707031 192.042969 C 150.765625 192.046875 150.824219 192.046875 150.886719 192.050781 C 150.957031 192.058594 151.027344 192.066406 151.097656 192.070312 C 153.460938 192.261719 155.773438 192.847656 157.941406 193.804688 C 160.636719 195 163.785156 193.78125 164.980469 191.089844 C 166.171875 188.394531 164.953125 185.246094 162.261719 184.050781 L 162.242188 184.042969 L 162.230469 184.039062 L 162.199219 184.023438 L 162.1875 184.019531 L 162.15625 184.003906 L 162.144531 184 C 162.117188 183.988281 162.089844 183.976562 162.0625 183.964844 L 162.046875 183.960938 L 162.019531 183.945312 L 162.003906 183.941406 L 161.976562 183.929688 L 161.964844 183.921875 L 161.929688 183.910156 L 161.921875 183.90625 L 161.835938 183.867188 L 161.824219 183.863281 L 161.796875 183.851562 L 161.777344 183.84375 L 161.753906 183.832031 L 161.738281 183.828125 L 161.710938 183.816406 L 161.695312 183.808594 L 161.613281 183.773438 L 161.601562 183.769531 L 161.570312 183.757812 L 161.554688 183.75 L 161.527344 183.738281 L 161.511719 183.734375 L 161.484375 183.71875 L 161.46875 183.714844 L 161.4375 183.703125 L 161.429688 183.699219 L 161.386719 183.679688 L 161.378906 183.679688 L 161.34375 183.664062 L 161.332031 183.660156 L 161.300781 183.644531 L 161.285156 183.640625 L 161.257812 183.628906 L 161.242188 183.625 L 161.207031 183.609375 L 161.203125 183.605469 C 161.171875 183.59375 161.144531 183.582031 161.113281 183.570312 L 161.105469 183.570312 L 161.070312 183.554688 L 161.0625 183.550781 L 161.015625 183.535156 L 160.984375 183.519531 L 160.972656 183.515625 C 160.945312 183.503906 160.914062 183.492188 160.886719 183.484375 L 160.878906 183.480469 L 160.84375 183.464844 L 160.832031 183.460938 L 160.800781 183.449219 L 160.789062 183.445312 L 160.753906 183.429688 L 160.746094 183.429688 L 160.703125 183.410156 L 160.65625 183.394531 L 160.613281 183.378906 L 160.605469 183.375 L 160.570312 183.363281 L 160.5625 183.359375 L 160.523438 183.34375 L 160.515625 183.34375 L 160.382812 183.292969 L 160.378906 183.289062 L 160.339844 183.277344 L 160.332031 183.273438 L 160.292969 183.257812 L 160.289062 183.257812 C 160.242188 183.242188 160.195312 183.226562 160.152344 183.207031 C 160.136719 183.203125 160.121094 183.199219 160.105469 183.191406 L 160.0625 183.175781 L 160.058594 183.175781 C 159.90625 183.121094 159.75 183.066406 159.597656 183.015625 C 157.117188 182.175781 154.546875 181.648438 151.9375 181.4375 C 151.859375 181.433594 151.78125 181.425781 151.703125 181.425781 C 151.636719 181.417969 151.570312 181.410156 151.5 181.40625 C 151.226562 181.386719 150.949219 181.371094 150.671875 181.359375 C 150.617188 181.359375 150.558594 181.359375 150.5 181.359375 C 150.351562 181.359375 150.207031 181.363281 150.0625 181.375 C 149.859375 181.351562 149.65625 181.335938 149.453125 181.332031 C 149.414062 181.332031 149.371094 181.332031 149.332031 181.332031 Z M 132.460938 187.34375 C 131.234375 187.34375 130.039062 187.769531 129.089844 188.550781 C 128.082031 189.375 127.121094 190.261719 126.21875 191.203125 L 126.21875 191.207031 L 126.191406 191.234375 L 126.1875 191.234375 C 126.140625 191.285156 126.09375 191.335938 126.046875 191.382812 L 126.046875 191.386719 L 125.984375 191.449219 L 125.960938 191.476562 L 125.957031 191.480469 L 125.933594 191.507812 C 125.894531 191.546875 125.859375 191.585938 125.824219 191.625 L 125.816406 191.628906 L 125.792969 191.65625 L 125.789062 191.664062 L 125.734375 191.71875 L 125.730469 191.726562 C 125.695312 191.761719 125.660156 191.800781 125.625 191.839844 L 125.621094 191.84375 L 125.601562 191.867188 L 125.589844 191.878906 L 125.570312 191.902344 L 125.5625 191.910156 L 125.542969 191.933594 L 125.53125 191.941406 L 125.511719 191.964844 L 125.503906 191.972656 L 125.433594 192.050781 L 125.425781 192.0625 L 125.40625 192.082031 L 125.398438 192.09375 L 125.378906 192.117188 L 125.347656 192.148438 L 125.339844 192.160156 L 125.320312 192.183594 L 125.289062 192.214844 L 125.28125 192.226562 L 125.246094 192.269531 L 125.214844 192.300781 L 125.207031 192.3125 L 125.1875 192.332031 L 125.175781 192.347656 L 125.160156 192.367188 L 125.148438 192.378906 L 125.128906 192.402344 L 125.121094 192.410156 L 125.101562 192.433594 L 125.089844 192.445312 C 125.070312 192.46875 125.046875 192.496094 125.023438 192.523438 L 125.015625 192.53125 L 124.996094 192.554688 L 124.988281 192.566406 L 124.957031 192.597656 L 124.941406 192.621094 L 124.929688 192.632812 L 124.910156 192.65625 L 124.902344 192.664062 L 124.882812 192.6875 L 124.878906 192.695312 L 124.832031 192.746094 L 124.828125 192.753906 L 124.808594 192.777344 L 124.800781 192.785156 L 124.78125 192.808594 L 124.773438 192.820312 L 124.753906 192.84375 L 124.746094 192.855469 L 124.714844 192.886719 L 124.695312 192.910156 L 124.691406 192.917969 C 124.667969 192.945312 124.644531 192.976562 124.617188 193.003906 L 124.613281 193.007812 L 124.59375 193.035156 L 124.585938 193.042969 L 124.566406 193.066406 L 124.558594 193.078125 L 124.539062 193.101562 L 124.53125 193.113281 L 124.511719 193.136719 L 124.503906 193.144531 L 124.484375 193.167969 L 124.480469 193.171875 C 124.457031 193.203125 124.433594 193.230469 124.410156 193.261719 L 124.402344 193.269531 L 124.382812 193.292969 L 124.375 193.304688 L 124.355469 193.328125 L 124.347656 193.335938 L 124.328125 193.363281 L 124.320312 193.371094 L 124.300781 193.394531 L 124.296875 193.402344 C 124.265625 193.441406 124.234375 193.484375 124.199219 193.523438 L 124.195312 193.53125 L 124.175781 193.558594 L 124.167969 193.5625 L 124.148438 193.589844 L 124.144531 193.597656 L 124.121094 193.625 L 124.117188 193.628906 C 124.085938 193.671875 124.050781 193.714844 124.019531 193.757812 L 124.015625 193.757812 L 123.996094 193.785156 L 123.988281 193.792969 L 123.96875 193.820312 L 123.964844 193.828125 L 123.941406 193.855469 L 123.9375 193.859375 C 123.890625 193.921875 123.839844 193.988281 123.792969 194.054688 L 123.789062 194.058594 L 123.765625 194.089844 C 123.707031 194.167969 123.648438 194.242188 123.589844 194.320312 L 123.589844 194.324219 C 123.058594 195.039062 122.5625 195.777344 122.09375 196.535156 C 122.046875 196.609375 122.003906 196.683594 121.960938 196.761719 C 121.921875 196.816406 121.882812 196.878906 121.847656 196.9375 C 121.828125 196.96875 121.808594 197 121.789062 197.03125 L 121.789062 197.035156 C 121.753906 197.09375 121.71875 197.152344 121.6875 197.210938 L 121.671875 197.234375 L 121.667969 197.242188 L 121.644531 197.277344 L 121.644531 197.28125 C 121.574219 197.402344 121.503906 197.527344 121.433594 197.652344 C 120.035156 200.183594 120.9375 203.367188 123.453125 204.792969 C 126.019531 206.246094 129.28125 205.367188 130.765625 202.816406 L 130.964844 202.476562 C 130.992188 202.425781 131.023438 202.375 131.050781 202.320312 C 131.089844 202.261719 131.128906 202.203125 131.164062 202.140625 C 132.417969 200.117188 133.996094 198.3125 135.84375 196.804688 C 137.585938 195.378906 138.246094 193.007812 137.488281 190.882812 C 136.730469 188.761719 134.71875 187.34375 132.460938 187.34375 Z M 122.972656 212.007812 C 121.417969 212.007812 119.941406 212.6875 118.925781 213.863281 C 117.914062 215.039062 117.460938 216.601562 117.691406 218.136719 C 117.820312 218.980469 117.976562 219.808594 118.167969 220.628906 L 118.167969 220.632812 C 118.1875 220.710938 118.207031 220.792969 118.226562 220.875 L 118.226562 220.878906 L 118.238281 220.917969 C 118.253906 220.984375 118.269531 221.050781 118.285156 221.117188 L 118.289062 221.121094 L 118.296875 221.160156 L 118.296875 221.164062 C 118.316406 221.242188 118.339844 221.324219 118.359375 221.402344 L 118.359375 221.40625 L 118.371094 221.445312 C 118.390625 221.527344 118.414062 221.609375 118.433594 221.6875 C 118.457031 221.769531 118.480469 221.851562 118.5 221.929688 L 118.511719 221.972656 C 119.117188 224.136719 119.953125 226.234375 121.003906 228.226562 C 121.042969 228.300781 121.085938 228.378906 121.128906 228.453125 C 121.160156 228.515625 121.191406 228.578125 121.222656 228.640625 C 121.242188 228.671875 121.261719 228.707031 121.277344 228.738281 L 121.28125 228.742188 C 121.304688 228.785156 121.328125 228.828125 121.351562 228.871094 L 121.367188 228.894531 L 121.375 228.914062 L 121.386719 228.929688 C 121.398438 228.957031 121.414062 228.984375 121.429688 229.007812 L 121.429688 229.011719 L 121.453125 229.050781 C 121.476562 229.09375 121.5 229.136719 121.523438 229.175781 L 121.523438 229.179688 C 121.558594 229.238281 121.59375 229.296875 121.628906 229.359375 C 123.097656 231.847656 126.300781 232.691406 128.808594 231.246094 C 131.363281 229.769531 132.257812 226.515625 130.816406 223.9375 L 130.625 223.597656 C 130.597656 223.546875 130.566406 223.496094 130.535156 223.445312 C 130.503906 223.382812 130.472656 223.316406 130.441406 223.253906 C 129.335938 221.160156 128.589844 218.890625 128.238281 216.550781 C 127.847656 213.941406 125.609375 212.011719 122.972656 212.007812 Z M 139.355469 232.734375 C 136.800781 232.734375 134.605469 234.546875 134.117188 237.050781 C 133.628906 239.558594 134.988281 242.058594 137.355469 243.015625 C 137.734375 243.167969 138.113281 243.3125 138.5 243.453125 L 138.535156 243.464844 L 138.542969 243.46875 L 138.574219 243.480469 L 138.582031 243.484375 C 138.628906 243.5 138.675781 243.515625 138.722656 243.53125 L 138.734375 243.535156 L 138.761719 243.546875 L 138.777344 243.550781 L 138.804688 243.5625 L 138.816406 243.566406 L 138.847656 243.574219 L 138.855469 243.578125 L 138.953125 243.613281 L 138.96875 243.617188 L 138.992188 243.625 L 139.011719 243.632812 L 139.035156 243.640625 L 139.054688 243.644531 L 139.078125 243.65625 L 139.09375 243.660156 L 139.125 243.671875 L 139.160156 243.683594 L 139.179688 243.6875 L 139.203125 243.695312 L 139.222656 243.703125 L 139.246094 243.710938 L 139.265625 243.71875 L 139.289062 243.726562 L 139.308594 243.730469 L 139.339844 243.742188 L 139.351562 243.746094 L 139.394531 243.757812 L 139.40625 243.765625 L 139.453125 243.777344 L 139.480469 243.789062 L 139.496094 243.792969 L 139.527344 243.804688 L 139.539062 243.808594 L 139.578125 243.820312 L 139.582031 243.820312 L 139.628906 243.835938 L 139.632812 243.835938 L 139.675781 243.851562 L 139.683594 243.851562 L 139.765625 243.878906 L 139.773438 243.882812 L 139.816406 243.894531 C 139.847656 243.90625 139.878906 243.914062 139.910156 243.921875 L 139.914062 243.925781 L 139.957031 243.9375 L 139.960938 243.9375 L 140.003906 243.953125 L 140.007812 243.953125 C 140.070312 243.972656 140.132812 243.992188 140.191406 244.007812 L 140.195312 244.011719 L 140.242188 244.023438 C 141.527344 244.402344 142.835938 244.703125 144.160156 244.917969 L 144.164062 244.917969 L 144.210938 244.925781 C 144.261719 244.933594 144.3125 244.941406 144.359375 244.949219 C 144.375 244.953125 144.390625 244.953125 144.40625 244.957031 L 144.414062 244.957031 L 144.453125 244.964844 L 144.464844 244.964844 L 144.503906 244.972656 L 144.511719 244.972656 L 144.605469 244.988281 L 144.617188 244.988281 L 144.652344 244.992188 L 144.667969 244.996094 L 144.703125 245 L 144.714844 245.003906 L 144.75 245.007812 L 144.761719 245.007812 L 144.804688 245.015625 L 144.808594 245.015625 L 144.855469 245.023438 L 144.871094 245.023438 L 144.902344 245.027344 L 144.917969 245.03125 L 144.945312 245.035156 L 144.992188 245.042969 L 145.011719 245.042969 L 145.042969 245.046875 L 145.070312 245.050781 L 145.101562 245.054688 L 145.128906 245.058594 L 145.148438 245.0625 L 145.175781 245.066406 L 145.195312 245.066406 L 145.222656 245.070312 L 145.234375 245.074219 L 145.269531 245.078125 L 145.273438 245.078125 C 145.3125 245.082031 145.351562 245.089844 145.390625 245.09375 L 145.394531 245.09375 C 145.40625 245.09375 145.421875 245.097656 145.433594 245.097656 L 145.441406 245.097656 L 145.476562 245.101562 L 145.480469 245.105469 C 146.222656 245.191406 146.96875 245.257812 147.722656 245.292969 C 147.8125 245.296875 147.898438 245.300781 147.984375 245.300781 C 148.050781 245.304688 148.121094 245.308594 148.1875 245.3125 C 148.464844 245.324219 148.742188 245.328125 149.019531 245.332031 C 151.910156 245.335938 154.265625 243.007812 154.300781 240.117188 C 154.335938 237.167969 151.988281 234.734375 149.039062 234.664062 L 148.644531 234.65625 C 148.605469 234.65625 148.5625 234.65625 148.523438 234.65625 C 148.503906 234.65625 148.484375 234.65625 148.464844 234.65625 C 148.394531 234.648438 148.324219 234.644531 148.253906 234.640625 C 145.882812 234.523438 143.550781 234.011719 141.351562 233.125 C 140.714844 232.867188 140.039062 232.734375 139.355469 232.734375 Z M 172.128906 221.910156 C 170.269531 221.90625 168.539062 222.863281 167.554688 224.4375 L 167.347656 224.769531 C 167.316406 224.820312 167.285156 224.871094 167.253906 224.921875 C 167.214844 224.980469 167.171875 225.039062 167.132812 225.097656 C 165.816406 227.085938 164.179688 228.835938 162.289062 230.285156 C 159.953125 232.074219 159.507812 235.417969 161.292969 237.753906 C 163.078125 240.09375 166.421875 240.542969 168.761719 238.761719 C 168.949219 238.621094 169.132812 238.476562 169.316406 238.328125 L 169.351562 238.300781 L 169.355469 238.296875 L 169.390625 238.269531 C 169.429688 238.238281 169.464844 238.210938 169.5 238.179688 L 169.503906 238.175781 L 169.535156 238.148438 L 169.542969 238.144531 L 169.574219 238.121094 L 169.582031 238.113281 L 169.609375 238.09375 L 169.617188 238.085938 L 169.644531 238.0625 L 169.652344 238.054688 L 169.722656 237.996094 L 169.734375 237.988281 L 169.757812 237.96875 L 169.769531 237.957031 L 169.792969 237.9375 L 169.804688 237.929688 L 169.828125 237.910156 L 169.84375 237.898438 L 169.863281 237.878906 L 169.875 237.871094 L 169.898438 237.851562 L 169.910156 237.839844 L 169.945312 237.8125 L 169.957031 237.800781 L 169.980469 237.785156 L 170.011719 237.753906 L 170.03125 237.738281 L 170.046875 237.726562 L 170.066406 237.710938 L 170.097656 237.679688 L 170.113281 237.667969 L 170.132812 237.652344 L 170.144531 237.644531 L 170.199219 237.597656 L 170.230469 237.566406 L 170.253906 237.546875 L 170.265625 237.539062 L 170.289062 237.519531 L 170.296875 237.511719 L 170.320312 237.492188 L 170.332031 237.480469 L 170.355469 237.460938 L 170.359375 237.457031 C 170.390625 237.429688 170.417969 237.402344 170.449219 237.378906 L 170.480469 237.347656 L 170.507812 237.324219 L 170.515625 237.320312 L 170.539062 237.296875 L 170.546875 237.292969 L 170.574219 237.269531 L 170.578125 237.265625 C 170.628906 237.21875 170.679688 237.175781 170.730469 237.128906 L 170.757812 237.101562 L 170.761719 237.101562 C 172.765625 235.292969 174.53125 233.242188 176.023438 230.992188 C 176.070312 230.921875 176.117188 230.847656 176.164062 230.773438 C 176.203125 230.714844 176.242188 230.65625 176.28125 230.597656 C 176.300781 230.566406 176.320312 230.539062 176.339844 230.507812 L 176.34375 230.5 C 176.398438 230.417969 176.449219 230.332031 176.503906 230.246094 L 176.523438 230.214844 L 176.523438 230.210938 C 176.589844 230.109375 176.65625 230.003906 176.71875 229.898438 C 178.195312 227.414062 177.398438 224.199219 174.925781 222.695312 C 174.085938 222.179688 173.117188 221.90625 172.132812 221.910156 Z M 172.910156 195.460938 C 172.042969 195.460938 171.1875 195.675781 170.421875 196.085938 C 167.820312 197.480469 166.820312 200.703125 168.179688 203.324219 L 168.359375 203.671875 C 168.386719 203.722656 168.414062 203.773438 168.445312 203.824219 C 168.472656 203.890625 168.503906 203.957031 168.535156 204.019531 C 169.570312 206.148438 170.242188 208.441406 170.519531 210.792969 C 170.835938 213.476562 173.105469 215.496094 175.808594 215.5 C 176.019531 215.5 176.230469 215.488281 176.441406 215.464844 C 179.359375 215.121094 181.449219 212.476562 181.113281 209.554688 C 180.695312 206.007812 179.683594 202.554688 178.121094 199.339844 C 178.082031 199.265625 178.046875 199.195312 178.007812 199.121094 C 177.980469 199.058594 177.949219 198.996094 177.917969 198.933594 C 177.902344 198.898438 177.882812 198.867188 177.867188 198.832031 L 177.863281 198.828125 L 177.828125 198.753906 C 177.730469 198.570312 177.636719 198.382812 177.535156 198.199219 C 176.609375 196.511719 174.835938 195.460938 172.910156 195.460938 Z M 172.910156 195.460938" stroke-linecap="round" />
</g>
		<g transform="matrix(1 0 0 1 21.33 85.33)" id="surface1"  >
<path style="stroke: none; stroke-width: 1; stroke-dasharray: none; stroke-linecap: butt; stroke-dashoffset: 0; stroke-linejoin: miter; stroke-miterlimit: 4; fill: rgb(255,247,196); fill-rule: nonzero; opacity: 1;"  transform=" translate(-149.33, -213.33)" d="M 160 213.332031 C 160 219.222656 155.222656 224 149.332031 224 C 143.441406 224 138.667969 219.222656 138.667969 213.332031 C 138.667969 207.441406 143.441406 202.667969 149.332031 202.667969 C 155.222656 202.667969 160 207.441406 160 213.332031 Z M 160 213.332031" stroke-linecap="round" />
</g>
		<g transform="matrix(1 0 0 1 -26.67 -42.67)" id="surface1"  >
<path style="stroke: none; stroke-width: 1; stroke-dasharray: none; stroke-linecap: butt; stroke-dashoffset: 0; stroke-linejoin: miter; stroke-miterlimit: 4; fill: rgb(183,219,249); fill-rule: nonzero; opacity: 1;"  transform=" translate(-101.33, -85.33)" d="M 119.703125 53.332031 L 98.472656 53.332031 C 87.636719 53.332031 78.523438 61.453125 77.28125 72.214844 L 74.8125 93.546875 C 74.109375 99.59375 76.027344 105.648438 80.074219 110.191406 C 84.121094 114.734375 89.917969 117.332031 96.003906 117.332031 L 128 117.332031 Z M 119.703125 53.332031" stroke-linecap="round" />
</g>
		<g transform="matrix(1 0 0 1 -25.83 -42.9)" id="surface1"  >
<path style="stroke: none; stroke-width: 1; stroke-dasharray: none; stroke-linecap: butt; stroke-dashoffset: 0; stroke-linejoin: miter; stroke-miterlimit: 4; fill: rgb(153,204,249); fill-rule: nonzero; opacity: 1;"  transform=" translate(-102.17, -85.1)" d="M 119.703125 53.332031 L 98.472656 53.332031 C 87.636719 53.332031 78.523438 61.453125 77.28125 72.214844 L 77.160156 73.253906 C 76.820312 76.179688 78.917969 78.828125 81.84375 79.164062 C 84.769531 79.503906 87.417969 77.40625 87.753906 74.480469 L 87.875 73.441406 C 88.496094 68.058594 93.054688 64 98.472656 64 L 110.332031 64 L 116.582031 112.226562 C 116.960938 115.144531 119.628906 117.203125 122.546875 116.832031 C 125.464844 116.460938 127.53125 113.796875 127.164062 110.875 L 122.59375 75.625 L 122.589844 75.609375 L 122.574219 75.46875 L 122.574219 75.464844 L 122.566406 75.40625 C 122.5625 75.378906 122.558594 75.347656 122.554688 75.316406 L 122.539062 75.210938 C 122.539062 75.191406 122.535156 75.175781 122.53125 75.15625 L 122.527344 75.128906 C 122.523438 75.085938 122.519531 75.042969 122.511719 75 L 122.507812 74.976562 C 122.503906 74.933594 122.496094 74.890625 122.492188 74.847656 L 122.46875 74.675781 C 121.929688 70.519531 121.441406 66.738281 121.0625 63.824219 Z M 119.703125 53.332031" stroke-linecap="round" />
</g>
		<g transform="matrix(1 0 0 1 -58.67 10.67)" id="surface1"  >
<path style="stroke: none; stroke-width: 1; stroke-dasharray: none; stroke-linecap: butt; stroke-dashoffset: 0; stroke-linejoin: miter; stroke-miterlimit: 4; fill: rgb(137,204,89); fill-rule: nonzero; opacity: 1;"  transform=" translate(-69.33, -138.67)" d="M 21.332031 138.667969 L 91.582031 138.667969 C 94.410156 138.667969 97.125 139.789062 99.125 141.789062 L 115.125 157.789062 C 118.070312 160.738281 122.84375 160.738281 125.789062 157.789062 C 128.738281 154.84375 128.738281 150.070312 125.789062 147.125 L 102.25 123.582031 C 98.246094 119.582031 92.820312 117.332031 87.164062 117.332031 L 21.332031 117.332031 C 15.441406 117.332031 10.667969 122.109375 10.667969 128 C 10.667969 133.890625 15.441406 138.667969 21.332031 138.667969 Z M 21.332031 138.667969" stroke-linecap="round" />
</g>
		<g transform="matrix(1 0 0 1 -58.23 4.36)" id="surface1"  >
<path style="stroke: none; stroke-width: 1; stroke-dasharray: none; stroke-linecap: butt; stroke-dashoffset: 0; stroke-linejoin: miter; stroke-miterlimit: 4; fill: rgb(158,224,122); fill-rule: nonzero; opacity: 1;"  transform=" translate(-69.77, -132.36)" d="M 87.164062 117.332031 L 26.363281 117.332031 C 23.417969 117.332031 21.03125 119.722656 21.03125 122.667969 C 21.03125 125.613281 23.417969 128 26.363281 128 L 87.164062 128 C 89.992188 127.992188 92.710938 129.117188 94.707031 131.125 L 108.578125 144.996094 C 108.644531 145.066406 108.71875 145.132812 108.789062 145.195312 C 108.855469 145.269531 108.921875 145.339844 108.992188 145.410156 L 109.40625 145.824219 C 111.488281 147.90625 114.867188 147.90625 116.949219 145.824219 C 119.03125 143.742188 119.03125 140.363281 116.949219 138.28125 L 116.535156 137.867188 C 116.464844 137.796875 116.394531 137.730469 116.320312 137.664062 C 116.257812 137.59375 116.1875 137.523438 116.121094 137.453125 L 102.25 123.582031 C 98.246094 119.582031 92.820312 117.332031 87.164062 117.332031 Z M 87.164062 117.332031" stroke-linecap="round" />
</g>
		<g transform="matrix(1 0 0 1 -16 -96)" id="surface1"  >
<path style="stroke: none; stroke-width: 1; stroke-dasharray: none; stroke-linecap: butt; stroke-dashoffset: 0; stroke-linejoin: miter; stroke-miterlimit: 4; fill: rgb(255,211,48); fill-rule: nonzero; opacity: 1;"  transform=" translate(-112, -32)" d="M 53.332031 21.332031 L 170.667969 21.332031 C 176.558594 21.332031 181.332031 26.109375 181.332031 32 C 181.332031 37.890625 176.558594 42.667969 170.667969 42.667969 L 53.332031 42.667969 C 47.441406 42.667969 42.667969 37.890625 42.667969 32 C 42.667969 26.109375 47.441406 21.332031 53.332031 21.332031 Z M 53.332031 21.332031" stroke-linecap="round" />
</g>
		<g transform="matrix(1 0 0 1 26.67 -96)" id="surface1"  >
<path style="stroke: none; stroke-width: 1; stroke-dasharray: none; stroke-linecap: butt; stroke-dashoffset: 0; stroke-linejoin: miter; stroke-miterlimit: 4; fill: rgb(221,140,0); fill-rule: nonzero; opacity: 1;"  transform=" translate(-154.67, -32)" d="M 170.667969 21.332031 C 176.558594 21.332031 181.332031 26.109375 181.332031 32 C 181.332031 37.890625 176.558594 42.667969 170.667969 42.667969 L 128 42.667969 C 133.890625 42.667969 138.667969 37.890625 138.667969 32 C 138.667969 26.109375 133.890625 21.332031 128 21.332031 Z M 170.667969 21.332031" stroke-linecap="round" />
</g>
		<g transform="matrix(1 0 0 1 -37.33 -101.33)" id="surface1"  >
<path style="stroke: none; stroke-width: 1; stroke-dasharray: none; stroke-linecap: butt; stroke-dashoffset: 0; stroke-linejoin: miter; stroke-miterlimit: 4; fill: rgb(255,237,124); fill-rule: nonzero; opacity: 1;"  transform=" translate(-90.67, -26.67)" d="M 58.667969 21.332031 L 122.667969 21.332031 C 125.613281 21.332031 128 23.722656 128 26.667969 C 128 29.613281 125.613281 32 122.667969 32 L 58.667969 32 C 55.722656 32 53.332031 29.613281 53.332031 26.667969 C 53.332031 23.722656 55.722656 21.332031 58.667969 21.332031 Z M 58.667969 21.332031" stroke-linecap="round" />
</g>
		<g transform="matrix(1 0 0 1 32 -101.33)" id="surface1"  >
<path style="stroke: none; stroke-width: 1; stroke-dasharray: none; stroke-linecap: butt; stroke-dashoffset: 0; stroke-linejoin: miter; stroke-miterlimit: 4; fill: rgb(242,170,2); fill-rule: nonzero; opacity: 1;"  transform=" translate(-160, -26.67)" d="M 154.667969 21.332031 L 165.332031 21.332031 C 168.277344 21.332031 170.667969 23.722656 170.667969 26.667969 C 170.667969 29.613281 168.277344 32 165.332031 32 L 154.667969 32 C 151.722656 32 149.332031 29.613281 149.332031 26.667969 C 149.332031 23.722656 151.722656 21.332031 154.667969 21.332031 Z M 154.667969 21.332031" stroke-linecap="round" />
</g>
		<g transform="matrix(1 0 0 1 80 74.67)" id="surface1"  >
<path style="stroke: none; stroke-width: 1; stroke-dasharray: none; stroke-linecap: butt; stroke-dashoffset: 0; stroke-linejoin: miter; stroke-miterlimit: 4; fill: rgb(30,81,0); fill-rule: nonzero; opacity: 1;"  transform=" translate(-208, -202.67)" d="M 202.667969 192 L 213.332031 192 C 219.222656 192 224 196.777344 224 202.667969 C 224 208.558594 219.222656 213.332031 213.332031 213.332031 L 202.667969 213.332031 C 196.777344 213.332031 192 208.558594 192 202.667969 C 192 196.777344 196.777344 192 202.667969 192 Z M 202.667969 192" stroke-linecap="round" />
</g>
		<g transform="matrix(1 0 0 1 -43.35 -4.82)" id="surface1"  >
<path style="stroke: none; stroke-width: 1; stroke-dasharray: none; stroke-linecap: butt; stroke-dashoffset: 0; stroke-linejoin: miter; stroke-miterlimit: 4; fill: rgb(201,237,181); fill-rule: nonzero; opacity: 1;"  transform=" translate(-84.65, -123.18)" d="M 87.164062 117.332031 L 76.496094 117.332031 C 73.550781 117.332031 71.164062 119.722656 71.164062 122.667969 C 71.164062 125.613281 73.550781 128 76.496094 128 L 87.164062 128 C 88.445312 128 89.71875 128.230469 90.921875 128.683594 C 93.671875 129.71875 96.742188 128.332031 97.785156 125.582031 C 98.828125 122.832031 97.445312 119.757812 94.699219 118.707031 C 92.914062 118.035156 91.042969 117.601562 89.140625 117.425781 C 89.054688 117.417969 88.964844 117.410156 88.878906 117.402344 L 88.847656 117.398438 L 88.808594 117.398438 L 88.78125 117.394531 L 88.777344 117.394531 L 88.75 117.390625 L 88.714844 117.390625 L 88.683594 117.386719 L 88.679688 117.386719 C 88.636719 117.382812 88.59375 117.382812 88.550781 117.378906 L 88.519531 117.375 L 88.480469 117.375 L 88.453125 117.371094 L 88.414062 117.371094 L 88.390625 117.367188 L 88.351562 117.367188 L 88.324219 117.363281 L 88.285156 117.363281 L 88.222656 117.359375 L 88.183594 117.359375 L 88.15625 117.355469 L 88.09375 117.355469 L 88.082031 117.351562 L 88.019531 117.351562 L 87.996094 117.347656 L 87.921875 117.347656 C 87.902344 117.347656 87.878906 117.34375 87.859375 117.34375 L 87.78125 117.34375 L 87.765625 117.339844 L 87.621094 117.339844 L 87.605469 117.335938 L 87.355469 117.335938 L 87.335938 117.332031 Z M 87.164062 117.332031" stroke-linecap="round" />
</g>
		<g transform="matrix(1 0 0 1 16 21.33)" id="surface1"  >
<path style="stroke: none; stroke-width: 1; stroke-dasharray: none; stroke-linecap: butt; stroke-dashoffset: 0; stroke-linejoin: miter; stroke-miterlimit: 4; fill: rgb(89,43,5); fill-rule: nonzero; opacity: 1;"  transform=" translate(-144, -149.33)" d="M 144 138.667969 C 146.945312 138.667969 149.332031 141.054688 149.332031 144 L 149.332031 154.667969 C 149.332031 157.613281 146.945312 160 144 160 C 141.054688 160 138.667969 157.613281 138.667969 154.667969 L 138.667969 144 C 138.667969 141.054688 141.054688 138.667969 144 138.667969 Z M 144 138.667969" stroke-linecap="round" />
</g>
		<g transform="matrix(1 0 0 1 5.33 21.33)" id="surface1"  >
<path style="stroke: none; stroke-width: 1; stroke-dasharray: none; stroke-linecap: butt; stroke-dashoffset: 0; stroke-linejoin: miter; stroke-miterlimit: 4; fill: rgb(158,224,122); fill-rule: nonzero; opacity: 1;"  transform=" translate(-133.33, -149.33)" d="M 133.332031 138.667969 C 136.277344 138.667969 138.667969 141.054688 138.667969 144 L 138.667969 154.667969 C 138.667969 157.613281 136.277344 160 133.332031 160 C 130.386719 160 128 157.613281 128 154.667969 L 128 144 C 128 141.054688 130.386719 138.667969 133.332031 138.667969 Z M 133.332031 138.667969" stroke-linecap="round" />
</g>
		<g transform="matrix(1 0 0 1 26.67 21.33)" id="surface1"  >
<path style="stroke: none; stroke-width: 1; stroke-dasharray: none; stroke-linecap: butt; stroke-dashoffset: 0; stroke-linejoin: miter; stroke-miterlimit: 4; fill: rgb(158,224,122); fill-rule: nonzero; opacity: 1;"  transform=" translate(-154.67, -149.33)" d="M 154.667969 138.667969 C 157.613281 138.667969 160 141.054688 160 144 L 160 154.667969 C 160 157.613281 157.613281 160 154.667969 160 C 151.722656 160 149.332031 157.613281 149.332031 154.667969 L 149.332031 144 C 149.332031 141.054688 151.722656 138.667969 154.667969 138.667969 Z M 154.667969 138.667969" stroke-linecap="round" />
</g>
		<g transform="matrix(1 0 0 1 37.33 21.33)" id="surface1"  >
<path style="stroke: none; stroke-width: 1; stroke-dasharray: none; stroke-linecap: butt; stroke-dashoffset: 0; stroke-linejoin: miter; stroke-miterlimit: 4; fill: rgb(89,43,5); fill-rule: nonzero; opacity: 1;"  transform=" translate(-165.33, -149.33)" d="M 165.332031 138.667969 C 168.277344 138.667969 170.667969 141.054688 170.667969 144 L 170.667969 154.667969 C 170.667969 157.613281 168.277344 160 165.332031 160 C 162.386719 160 160 157.613281 160 154.667969 L 160 144 C 160 141.054688 162.386719 138.667969 165.332031 138.667969 Z M 165.332031 138.667969" stroke-linecap="round" />
</g>
</g>
</g>
</svg>